solid ASCII
  facet normal 0.000000e+00 -0.000000e+00 1.000000e+00
    outer loop
      vertex   4.000000e-02 8.843729e-02 -3.606567e-01
      vertex   8.090474e-02 1.107649e-01 -3.606567e-01
      vertex   3.500000e-02 8.843729e-02 -3.606567e-01
    endloop
  endfacet
  facet normal 0.000000e+00 -0.000000e+00 1.000000e+00
    outer loop
      vertex   3.500000e-02 8.843729e-02 -3.606567e-01
      vertex   8.090474e-02 1.107649e-01 -3.606567e-01
      vertex   -4.128628e-02 1.107649e-01 -3.606567e-01
    endloop
  endfacet
  facet normal 0.000000e+00 0.000000e+00 1.000000e+00
    outer loop
      vertex   3.500000e-02 8.843729e-02 -3.606567e-01
      vertex   -4.128628e-02 1.107649e-01 -3.606567e-01
      vertex   -3.000000e-02 8.843729e-02 -3.606567e-01
    endloop
  endfacet
  facet normal 0.000000e+00 0.000000e+00 1.000000e+00
    outer loop
      vertex   -3.000000e-02 8.843729e-02 -3.606567e-01
      vertex   -4.128628e-02 1.107649e-01 -3.606567e-01
      vertex   -3.500000e-02 8.843729e-02 -3.606567e-01
    endloop
  endfacet
  facet normal 0.000000e+00 0.000000e+00 1.000000e+00
    outer loop
      vertex   -3.500000e-02 8.843729e-02 -3.606567e-01
      vertex   -4.128628e-02 1.107649e-01 -3.606567e-01
      vertex   -3.500000e-02 5.843928e-02 -3.606567e-01
    endloop
  endfacet
  facet normal 0.000000e+00 0.000000e+00 1.000000e+00
    outer loop
      vertex   -3.500000e-02 5.843928e-02 -3.606567e-01
      vertex   -4.128628e-02 1.107649e-01 -3.606567e-01
      vertex   -4.128628e-02 3.610964e-02 -3.606567e-01
    endloop
  endfacet
  facet normal -0.000000e+00 0.000000e+00 1.000000e+00
    outer loop
      vertex   -3.500000e-02 5.843928e-02 -3.606567e-01
      vertex   -4.128628e-02 3.610964e-02 -3.606567e-01
      vertex   -3.000000e-02 5.843928e-02 -3.606567e-01
    endloop
  endfacet
  facet normal -0.000000e+00 0.000000e+00 1.000000e+00
    outer loop
      vertex   -3.000000e-02 5.843928e-02 -3.606567e-01
      vertex   -4.128628e-02 3.610964e-02 -3.606567e-01
      vertex   3.500000e-02 5.843928e-02 -3.606567e-01
    endloop
  endfacet
  facet normal 0.000000e+00 0.000000e+00 1.000000e+00
    outer loop
      vertex   -3.000000e-02 5.843928e-02 -3.606567e-01
      vertex   3.500000e-02 5.843928e-02 -3.606567e-01
      vertex   3.500000e-02 8.843729e-02 -3.606567e-01
    endloop
  endfacet
  facet normal -0.000000e+00 0.000000e+00 1.000000e+00
    outer loop
      vertex   4.000000e-02 8.843729e-02 -3.606567e-01
      vertex   4.000000e-02 5.843928e-02 -3.606567e-01
      vertex   8.090474e-02 1.107649e-01 -3.606567e-01
    endloop
  endfacet
  facet normal 0.000000e+00 0.000000e+00 1.000000e+00
    outer loop
      vertex   8.090474e-02 1.107649e-01 -3.606567e-01
      vertex   4.000000e-02 5.843928e-02 -3.606567e-01
      vertex   8.090474e-02 3.610964e-02 -3.606567e-01
    endloop
  endfacet
  facet normal 0.000000e+00 0.000000e+00 1.000000e+00
    outer loop
      vertex   8.090474e-02 3.610964e-02 -3.606567e-01
      vertex   4.000000e-02 5.843928e-02 -3.606567e-01
      vertex   3.500000e-02 5.843928e-02 -3.606567e-01
    endloop
  endfacet
  facet normal 0.000000e+00 0.000000e+00 1.000000e+00
    outer loop
      vertex   8.090474e-02 3.610964e-02 -3.606567e-01
      vertex   3.500000e-02 5.843928e-02 -3.606567e-01
      vertex   -4.128628e-02 3.610964e-02 -3.606567e-01
    endloop
  endfacet
  facet normal -0.000000e+00 0.000000e+00 1.000000e+00
    outer loop
      vertex   -3.000000e-02 8.843729e-02 -3.606567e-01
      vertex   -3.000000e-02 5.843928e-02 -3.606567e-01
      vertex   3.500000e-02 8.843729e-02 -3.606567e-01
    endloop
  endfacet
  facet normal -0.000000e+00 -1.000000e+00 -0.000000e+00
    outer loop
      vertex   8.090474e-02 3.610964e-02 -3.606567e-01
      vertex   -4.128628e-02 3.610964e-02 -3.606567e-01
      vertex   8.090474e-02 3.610964e-02 -3.706567e-01
    endloop
  endfacet
  facet normal 0.000000e+00 -1.000000e+00 0.000000e+00
    outer loop
      vertex   8.090474e-02 3.610964e-02 -3.706567e-01
      vertex   -4.128628e-02 3.610964e-02 -3.606567e-01
      vertex   -4.128628e-02 3.610964e-02 -3.706567e-01
    endloop
  endfacet
  facet normal 1.000000e+00 0.000000e+00 0.000000e+00
    outer loop
      vertex   8.090474e-02 1.107649e-01 -3.606567e-01
      vertex   8.090474e-02 3.610964e-02 -3.606567e-01
      vertex   8.090474e-02 1.107649e-01 -3.706567e-01
    endloop
  endfacet
  facet normal 1.000000e+00 0.000000e+00 0.000000e+00
    outer loop
      vertex   8.090474e-02 1.107649e-01 -3.706567e-01
      vertex   8.090474e-02 3.610964e-02 -3.606567e-01
      vertex   8.090474e-02 3.610964e-02 -3.706567e-01
    endloop
  endfacet
  facet normal 1.135745e-16 1.000000e+00 0.000000e+00
    outer loop
      vertex   -4.128628e-02 1.107649e-01 -3.606567e-01
      vertex   8.090474e-02 1.107649e-01 -3.606567e-01
      vertex   -4.128628e-02 1.107649e-01 -3.706567e-01
    endloop
  endfacet
  facet normal 1.135745e-16 1.000000e+00 0.000000e+00
    outer loop
      vertex   -4.128628e-02 1.107649e-01 -3.706567e-01
      vertex   8.090474e-02 1.107649e-01 -3.606567e-01
      vertex   8.090474e-02 1.107649e-01 -3.706567e-01
    endloop
  endfacet
  facet normal -1.000000e+00 -9.294576e-17 -0.000000e+00
    outer loop
      vertex   -4.128628e-02 3.610964e-02 -3.606567e-01
      vertex   -4.128628e-02 1.107649e-01 -3.606567e-01
      vertex   -4.128628e-02 3.610964e-02 -3.706567e-01
    endloop
  endfacet
  facet normal -1.000000e+00 -9.294576e-17 0.000000e+00
    outer loop
      vertex   -4.128628e-02 3.610964e-02 -3.706567e-01
      vertex   -4.128628e-02 1.107649e-01 -3.606567e-01
      vertex   -4.128628e-02 1.107649e-01 -3.706567e-01
    endloop
  endfacet
  facet normal 0.000000e+00 0.000000e+00 -1.000000e+00
    outer loop
      vertex   -4.128628e-02 1.107649e-01 -3.706567e-01
      vertex   8.090474e-02 1.107649e-01 -3.706567e-01
      vertex   -4.128628e-02 3.610964e-02 -3.706567e-01
    endloop
  endfacet
  facet normal 0.000000e+00 0.000000e+00 -1.000000e+00
    outer loop
      vertex   -4.128628e-02 3.610964e-02 -3.706567e-01
      vertex   8.090474e-02 1.107649e-01 -3.706567e-01
      vertex   8.090474e-02 3.610964e-02 -3.706567e-01
    endloop
  endfacet
  facet normal -0.000000e+00 -0.000000e+00 -1.000000e+00
    outer loop
      vertex   -3.000000e-02 7.462330e-02 -3.203987e-01
      vertex   -3.000000e-02 7.225128e-02 -3.203987e-01
      vertex   -3.500000e-02 7.462330e-02 -3.203987e-01
    endloop
  endfacet
  facet normal 0.000000e+00 0.000000e+00 -1.000000e+00
    outer loop
      vertex   -3.500000e-02 7.462330e-02 -3.203987e-01
      vertex   -3.000000e-02 7.225128e-02 -3.203987e-01
      vertex   -3.500000e-02 7.225128e-02 -3.203987e-01
    endloop
  endfacet
  facet normal 0.000000e+00 4.602026e-01 -8.878139e-01
    outer loop
      vertex   -3.500000e-02 7.225128e-02 -3.203987e-01
      vertex   -3.000000e-02 7.225128e-02 -3.203987e-01
      vertex   -3.500000e-02 7.009267e-02 -3.215176e-01
    endloop
  endfacet
  facet normal 0.000000e+00 4.602026e-01 -8.878139e-01
    outer loop
      vertex   -3.500000e-02 7.009267e-02 -3.215176e-01
      vertex   -3.000000e-02 7.225128e-02 -3.203987e-01
      vertex   -3.000000e-02 7.009267e-02 -3.215176e-01
    endloop
  endfacet
  facet normal 0.000000e+00 8.206070e-01 -5.714929e-01
    outer loop
      vertex   -3.500000e-02 7.009267e-02 -3.215176e-01
      vertex   -3.000000e-02 7.009267e-02 -3.215176e-01
      vertex   -3.000000e-02 6.870315e-02 -3.235128e-01
    endloop
  endfacet
  facet normal 0.000000e+00 8.206070e-01 -5.714929e-01
    outer loop
      vertex   -3.500000e-02 7.009267e-02 -3.215176e-01
      vertex   -3.000000e-02 6.870315e-02 -3.235128e-01
      vertex   -3.500000e-02 6.870315e-02 -3.235128e-01
    endloop
  endfacet
  facet normal 0.000000e+00 9.923126e-01 -1.237569e-01
    outer loop
      vertex   -3.500000e-02 6.870315e-02 -3.235128e-01
      vertex   -3.000000e-02 6.870315e-02 -3.235128e-01
      vertex   -3.000000e-02 6.840225e-02 -3.259255e-01
    endloop
  endfacet
  facet normal 0.000000e+00 9.923126e-01 -1.237569e-01
    outer loop
      vertex   -3.500000e-02 6.870315e-02 -3.235128e-01
      vertex   -3.000000e-02 6.840225e-02 -3.259255e-01
      vertex   -3.500000e-02 6.840225e-02 -3.259255e-01
    endloop
  endfacet
  facet normal -0.000000e+00 9.358355e-01 3.524370e-01
    outer loop
      vertex   -3.500000e-02 6.840225e-02 -3.259255e-01
      vertex   -3.000000e-02 6.840225e-02 -3.259255e-01
      vertex   -3.000000e-02 6.925916e-02 -3.282009e-01
    endloop
  endfacet
  facet normal 0.000000e+00 9.358355e-01 3.524370e-01
    outer loop
      vertex   -3.500000e-02 6.840225e-02 -3.259255e-01
      vertex   -3.000000e-02 6.925916e-02 -3.282009e-01
      vertex   -3.500000e-02 6.925916e-02 -3.282009e-01
    endloop
  endfacet
  facet normal -0.000000e+00 6.641628e-01 7.475879e-01
    outer loop
      vertex   -3.500000e-02 6.925916e-02 -3.282009e-01
      vertex   -3.000000e-02 6.925916e-02 -3.282009e-01
      vertex   -3.000000e-02 7.107683e-02 -3.298157e-01
    endloop
  endfacet
  facet normal 0.000000e+00 6.641628e-01 7.475879e-01
    outer loop
      vertex   -3.500000e-02 6.925916e-02 -3.282009e-01
      vertex   -3.000000e-02 7.107683e-02 -3.298157e-01
      vertex   -3.500000e-02 7.107683e-02 -3.298157e-01
    endloop
  endfacet
  facet normal -0.000000e+00 2.397657e-01 9.708308e-01
    outer loop
      vertex   -3.500000e-02 7.107683e-02 -3.298157e-01
      vertex   -3.000000e-02 7.107683e-02 -3.298157e-01
      vertex   -3.000000e-02 7.343729e-02 -3.303987e-01
    endloop
  endfacet
  facet normal 0.000000e+00 2.397657e-01 9.708308e-01
    outer loop
      vertex   -3.500000e-02 7.107683e-02 -3.298157e-01
      vertex   -3.000000e-02 7.343729e-02 -3.303987e-01
      vertex   -3.500000e-02 7.343729e-02 -3.303987e-01
    endloop
  endfacet
  facet normal 0.000000e+00 -2.397657e-01 9.708308e-01
    outer loop
      vertex   -3.500000e-02 7.343729e-02 -3.303987e-01
      vertex   -3.000000e-02 7.343729e-02 -3.303987e-01
      vertex   -3.000000e-02 7.579775e-02 -3.298157e-01
    endloop
  endfacet
  facet normal 0.000000e+00 -2.397657e-01 9.708308e-01
    outer loop
      vertex   -3.500000e-02 7.343729e-02 -3.303987e-01
      vertex   -3.000000e-02 7.579775e-02 -3.298157e-01
      vertex   -3.500000e-02 7.579775e-02 -3.298157e-01
    endloop
  endfacet
  facet normal 0.000000e+00 -6.641628e-01 7.475879e-01
    outer loop
      vertex   -3.500000e-02 7.579775e-02 -3.298157e-01
      vertex   -3.000000e-02 7.579775e-02 -3.298157e-01
      vertex   -3.000000e-02 7.761543e-02 -3.282009e-01
    endloop
  endfacet
  facet normal 0.000000e+00 -6.641628e-01 7.475879e-01
    outer loop
      vertex   -3.500000e-02 7.579775e-02 -3.298157e-01
      vertex   -3.000000e-02 7.761543e-02 -3.282009e-01
      vertex   -3.500000e-02 7.761543e-02 -3.282009e-01
    endloop
  endfacet
  facet normal 0.000000e+00 -9.358355e-01 3.524370e-01
    outer loop
      vertex   -3.500000e-02 7.761543e-02 -3.282009e-01
      vertex   -3.000000e-02 7.761543e-02 -3.282009e-01
      vertex   -3.000000e-02 7.847234e-02 -3.259255e-01
    endloop
  endfacet
  facet normal 0.000000e+00 -9.358355e-01 3.524370e-01
    outer loop
      vertex   -3.500000e-02 7.761543e-02 -3.282009e-01
      vertex   -3.000000e-02 7.847234e-02 -3.259255e-01
      vertex   -3.500000e-02 7.847234e-02 -3.259255e-01
    endloop
  endfacet
  facet normal 0.000000e+00 -9.923126e-01 -1.237569e-01
    outer loop
      vertex   -3.500000e-02 7.847234e-02 -3.259255e-01
      vertex   -3.000000e-02 7.847234e-02 -3.259255e-01
      vertex   -3.000000e-02 7.817144e-02 -3.235128e-01
    endloop
  endfacet
  facet normal 0.000000e+00 -9.923126e-01 -1.237569e-01
    outer loop
      vertex   -3.500000e-02 7.847234e-02 -3.259255e-01
      vertex   -3.000000e-02 7.817144e-02 -3.235128e-01
      vertex   -3.500000e-02 7.817144e-02 -3.235128e-01
    endloop
  endfacet
  facet normal 0.000000e+00 -8.206070e-01 -5.714929e-01
    outer loop
      vertex   -3.500000e-02 7.817144e-02 -3.235128e-01
      vertex   -3.000000e-02 7.817144e-02 -3.235128e-01
      vertex   -3.000000e-02 7.678192e-02 -3.215176e-01
    endloop
  endfacet
  facet normal 0.000000e+00 -8.206070e-01 -5.714929e-01
    outer loop
      vertex   -3.500000e-02 7.817144e-02 -3.235128e-01
      vertex   -3.000000e-02 7.678192e-02 -3.215176e-01
      vertex   -3.500000e-02 7.678192e-02 -3.215176e-01
    endloop
  endfacet
  facet normal 0.000000e+00 -4.602026e-01 -8.878139e-01
    outer loop
      vertex   -3.500000e-02 7.678192e-02 -3.215176e-01
      vertex   -3.000000e-02 7.678192e-02 -3.215176e-01
      vertex   -3.500000e-02 7.462330e-02 -3.203987e-01
    endloop
  endfacet
  facet normal 0.000000e+00 -4.602026e-01 -8.878139e-01
    outer loop
      vertex   -3.500000e-02 7.462330e-02 -3.203987e-01
      vertex   -3.000000e-02 7.678192e-02 -3.215176e-01
      vertex   -3.000000e-02 7.462330e-02 -3.203987e-01
    endloop
  endfacet
  facet normal 0.000000e+00 -1.000000e+00 0.000000e+00
    outer loop
      vertex   -3.000000e-02 5.843928e-02 -3.606567e-01
      vertex   -3.000000e-02 5.843928e-02 -3.250840e-01
      vertex   -3.500000e-02 5.843928e-02 -3.606567e-01
    endloop
  endfacet
  facet normal 0.000000e+00 -1.000000e+00 0.000000e+00
    outer loop
      vertex   -3.500000e-02 5.843928e-02 -3.606567e-01
      vertex   -3.000000e-02 5.843928e-02 -3.250840e-01
      vertex   -3.500000e-02 5.843928e-02 -3.250840e-01
    endloop
  endfacet
  facet normal 0.000000e+00 1.000000e+00 0.000000e+00
    outer loop
      vertex   -3.000000e-02 8.843729e-02 -3.253283e-01
      vertex   -3.000000e-02 8.843729e-02 -3.606567e-01
      vertex   -3.500000e-02 8.843729e-02 -3.253283e-01
    endloop
  endfacet
  facet normal 0.000000e+00 1.000000e+00 0.000000e+00
    outer loop
      vertex   -3.500000e-02 8.843729e-02 -3.253283e-01
      vertex   -3.000000e-02 8.843729e-02 -3.606567e-01
      vertex   -3.500000e-02 8.843729e-02 -3.606567e-01
    endloop
  endfacet
  facet normal 0.000000e+00 -9.714499e-01 2.372449e-01
    outer loop
      vertex   -3.500000e-02 5.843928e-02 -3.250840e-01
      vertex   -3.000000e-02 5.843928e-02 -3.250840e-01
      vertex   -3.500000e-02 6.001497e-02 -3.186320e-01
    endloop
  endfacet
  facet normal 0.000000e+00 -9.714499e-01 2.372449e-01
    outer loop
      vertex   -3.500000e-02 6.001497e-02 -3.186320e-01
      vertex   -3.000000e-02 5.843928e-02 -3.250840e-01
      vertex   -3.000000e-02 6.001497e-02 -3.186320e-01
    endloop
  endfacet
  facet normal 0.000000e+00 -7.737859e-01 6.334472e-01
    outer loop
      vertex   -3.500000e-02 6.001497e-02 -3.186320e-01
      vertex   -3.000000e-02 6.001497e-02 -3.186320e-01
      vertex   -3.500000e-02 6.422206e-02 -3.134928e-01
    endloop
  endfacet
  facet normal 0.000000e+00 -7.737859e-01 6.334472e-01
    outer loop
      vertex   -3.500000e-02 6.422206e-02 -3.134928e-01
      vertex   -3.000000e-02 6.001497e-02 -3.186320e-01
      vertex   -3.000000e-02 6.422206e-02 -3.134928e-01
    endloop
  endfacet
  facet normal 0.000000e+00 -4.244232e-01 9.054639e-01
    outer loop
      vertex   -3.500000e-02 6.422206e-02 -3.134928e-01
      vertex   -3.000000e-02 6.422206e-02 -3.134928e-01
      vertex   -3.500000e-02 7.023578e-02 -3.106740e-01
    endloop
  endfacet
  facet normal 0.000000e+00 -4.244232e-01 9.054639e-01
    outer loop
      vertex   -3.500000e-02 7.023578e-02 -3.106740e-01
      vertex   -3.000000e-02 6.422206e-02 -3.134928e-01
      vertex   -3.000000e-02 7.023578e-02 -3.106740e-01
    endloop
  endfacet
  facet normal -0.000000e+00 8.146468e-03 9.999668e-01
    outer loop
      vertex   -3.500000e-02 7.023578e-02 -3.106740e-01
      vertex   -3.000000e-02 7.023578e-02 -3.106740e-01
      vertex   -3.500000e-02 7.687714e-02 -3.107281e-01
    endloop
  endfacet
  facet normal -0.000000e+00 8.146468e-03 9.999668e-01
    outer loop
      vertex   -3.500000e-02 7.687714e-02 -3.107281e-01
      vertex   -3.000000e-02 7.023578e-02 -3.106740e-01
      vertex   -3.000000e-02 7.687714e-02 -3.107281e-01
    endloop
  endfacet
  facet normal -0.000000e+00 4.391191e-01 8.984289e-01
    outer loop
      vertex   -3.500000e-02 7.687714e-02 -3.107281e-01
      vertex   -3.000000e-02 7.687714e-02 -3.107281e-01
      vertex   -3.500000e-02 8.284413e-02 -3.136445e-01
    endloop
  endfacet
  facet normal -0.000000e+00 4.391191e-01 8.984289e-01
    outer loop
      vertex   -3.500000e-02 8.284413e-02 -3.136445e-01
      vertex   -3.000000e-02 7.687714e-02 -3.107281e-01
      vertex   -3.000000e-02 8.284413e-02 -3.136445e-01
    endloop
  endfacet
  facet normal -0.000000e+00 7.840036e-01 6.207563e-01
    outer loop
      vertex   -3.500000e-02 8.284413e-02 -3.136445e-01
      vertex   -3.000000e-02 8.284413e-02 -3.136445e-01
      vertex   -3.500000e-02 8.696694e-02 -3.188516e-01
    endloop
  endfacet
  facet normal -0.000000e+00 7.840036e-01 6.207563e-01
    outer loop
      vertex   -3.500000e-02 8.696694e-02 -3.188516e-01
      vertex   -3.000000e-02 8.284413e-02 -3.136445e-01
      vertex   -3.000000e-02 8.696694e-02 -3.188516e-01
    endloop
  endfacet
  facet normal -0.000000e+00 9.751862e-01 2.213862e-01
    outer loop
      vertex   -3.500000e-02 8.696694e-02 -3.188516e-01
      vertex   -3.000000e-02 8.696694e-02 -3.188516e-01
      vertex   -3.500000e-02 8.843729e-02 -3.253283e-01
    endloop
  endfacet
  facet normal -2.457880e-15 9.751862e-01 2.213862e-01
    outer loop
      vertex   -3.500000e-02 8.843729e-02 -3.253283e-01
      vertex   -3.000000e-02 8.696694e-02 -3.188516e-01
      vertex   -3.000000e-02 8.843729e-02 -3.253283e-01
    endloop
  endfacet
  facet normal 1.000000e+00 0.000000e+00 -0.000000e+00
    outer loop
      vertex   -3.000000e-02 7.678192e-02 -3.215176e-01
      vertex   -3.000000e-02 7.687714e-02 -3.107281e-01
      vertex   -3.000000e-02 7.462330e-02 -3.203987e-01
    endloop
  endfacet
  facet normal 1.000000e+00 0.000000e+00 -0.000000e+00
    outer loop
      vertex   -3.000000e-02 7.462330e-02 -3.203987e-01
      vertex   -3.000000e-02 7.687714e-02 -3.107281e-01
      vertex   -3.000000e-02 7.023578e-02 -3.106740e-01
    endloop
  endfacet
  facet normal 1.000000e+00 0.000000e+00 0.000000e+00
    outer loop
      vertex   -3.000000e-02 7.462330e-02 -3.203987e-01
      vertex   -3.000000e-02 7.023578e-02 -3.106740e-01
      vertex   -3.000000e-02 7.225128e-02 -3.203987e-01
    endloop
  endfacet
  facet normal 1.000000e+00 0.000000e+00 0.000000e+00
    outer loop
      vertex   -3.000000e-02 7.225128e-02 -3.203987e-01
      vertex   -3.000000e-02 7.023578e-02 -3.106740e-01
      vertex   -3.000000e-02 7.009267e-02 -3.215176e-01
    endloop
  endfacet
  facet normal 1.000000e+00 0.000000e+00 -0.000000e+00
    outer loop
      vertex   -3.000000e-02 7.009267e-02 -3.215176e-01
      vertex   -3.000000e-02 7.023578e-02 -3.106740e-01
      vertex   -3.000000e-02 6.422206e-02 -3.134928e-01
    endloop
  endfacet
  facet normal 1.000000e+00 0.000000e+00 0.000000e+00
    outer loop
      vertex   -3.000000e-02 7.009267e-02 -3.215176e-01
      vertex   -3.000000e-02 6.422206e-02 -3.134928e-01
      vertex   -3.000000e-02 6.870315e-02 -3.235128e-01
    endloop
  endfacet
  facet normal 1.000000e+00 0.000000e+00 0.000000e+00
    outer loop
      vertex   -3.000000e-02 6.870315e-02 -3.235128e-01
      vertex   -3.000000e-02 6.422206e-02 -3.134928e-01
      vertex   -3.000000e-02 6.001497e-02 -3.186320e-01
    endloop
  endfacet
  facet normal 1.000000e+00 0.000000e+00 0.000000e+00
    outer loop
      vertex   -3.000000e-02 6.870315e-02 -3.235128e-01
      vertex   -3.000000e-02 6.001497e-02 -3.186320e-01
      vertex   -3.000000e-02 6.840225e-02 -3.259255e-01
    endloop
  endfacet
  facet normal 1.000000e+00 0.000000e+00 0.000000e+00
    outer loop
      vertex   -3.000000e-02 6.840225e-02 -3.259255e-01
      vertex   -3.000000e-02 6.001497e-02 -3.186320e-01
      vertex   -3.000000e-02 5.843928e-02 -3.250840e-01
    endloop
  endfacet
  facet normal 1.000000e+00 0.000000e+00 0.000000e+00
    outer loop
      vertex   -3.000000e-02 6.840225e-02 -3.259255e-01
      vertex   -3.000000e-02 5.843928e-02 -3.250840e-01
      vertex   -3.000000e-02 6.925916e-02 -3.282009e-01
    endloop
  endfacet
  facet normal 1.000000e+00 2.809614e-17 9.753110e-17
    outer loop
      vertex   -3.000000e-02 6.925916e-02 -3.282009e-01
      vertex   -3.000000e-02 5.843928e-02 -3.250840e-01
      vertex   -3.000000e-02 5.843928e-02 -3.606567e-01
    endloop
  endfacet
  facet normal 1.000000e+00 7.326861e-17 8.247184e-17
    outer loop
      vertex   -3.000000e-02 6.925916e-02 -3.282009e-01
      vertex   -3.000000e-02 5.843928e-02 -3.606567e-01
      vertex   -3.000000e-02 7.107683e-02 -3.298157e-01
    endloop
  endfacet
  facet normal 1.000000e+00 2.522956e-17 1.021566e-16
    outer loop
      vertex   -3.000000e-02 7.107683e-02 -3.298157e-01
      vertex   -3.000000e-02 5.843928e-02 -3.606567e-01
      vertex   -3.000000e-02 7.343729e-02 -3.303987e-01
    endloop
  endfacet
  facet normal 1.000000e+00 0.000000e+00 1.146621e-16
    outer loop
      vertex   -3.000000e-02 7.343729e-02 -3.303987e-01
      vertex   -3.000000e-02 5.843928e-02 -3.606567e-01
      vertex   -3.000000e-02 8.843729e-02 -3.606567e-01
    endloop
  endfacet
  facet normal 1.000000e+00 -2.522920e-17 1.021551e-16
    outer loop
      vertex   -3.000000e-02 7.343729e-02 -3.303987e-01
      vertex   -3.000000e-02 8.843729e-02 -3.606567e-01
      vertex   -3.000000e-02 7.579775e-02 -3.298157e-01
    endloop
  endfacet
  facet normal 1.000000e+00 -7.326553e-17 8.246837e-17
    outer loop
      vertex   -3.000000e-02 7.579775e-02 -3.298157e-01
      vertex   -3.000000e-02 8.843729e-02 -3.606567e-01
      vertex   -3.000000e-02 7.761543e-02 -3.282009e-01
    endloop
  endfacet
  facet normal 1.000000e+00 -2.606755e-17 9.820578e-17
    outer loop
      vertex   -3.000000e-02 7.761543e-02 -3.282009e-01
      vertex   -3.000000e-02 8.843729e-02 -3.606567e-01
      vertex   -3.000000e-02 8.843729e-02 -3.253283e-01
    endloop
  endfacet
  facet normal 1.000000e+00 0.000000e+00 0.000000e+00
    outer loop
      vertex   -3.000000e-02 7.761543e-02 -3.282009e-01
      vertex   -3.000000e-02 8.843729e-02 -3.253283e-01
      vertex   -3.000000e-02 7.847234e-02 -3.259255e-01
    endloop
  endfacet
  facet normal 1.000000e+00 0.000000e+00 0.000000e+00
    outer loop
      vertex   -3.000000e-02 7.847234e-02 -3.259255e-01
      vertex   -3.000000e-02 8.843729e-02 -3.253283e-01
      vertex   -3.000000e-02 8.696694e-02 -3.188516e-01
    endloop
  endfacet
  facet normal 1.000000e+00 0.000000e+00 -0.000000e+00
    outer loop
      vertex   -3.000000e-02 7.847234e-02 -3.259255e-01
      vertex   -3.000000e-02 8.696694e-02 -3.188516e-01
      vertex   -3.000000e-02 7.817144e-02 -3.235128e-01
    endloop
  endfacet
  facet normal 1.000000e+00 0.000000e+00 0.000000e+00
    outer loop
      vertex   -3.000000e-02 7.817144e-02 -3.235128e-01
      vertex   -3.000000e-02 8.696694e-02 -3.188516e-01
      vertex   -3.000000e-02 8.284413e-02 -3.136445e-01
    endloop
  endfacet
  facet normal 1.000000e+00 0.000000e+00 -0.000000e+00
    outer loop
      vertex   -3.000000e-02 7.817144e-02 -3.235128e-01
      vertex   -3.000000e-02 8.284413e-02 -3.136445e-01
      vertex   -3.000000e-02 7.678192e-02 -3.215176e-01
    endloop
  endfacet
  facet normal 1.000000e+00 0.000000e+00 0.000000e+00
    outer loop
      vertex   -3.000000e-02 7.678192e-02 -3.215176e-01
      vertex   -3.000000e-02 8.284413e-02 -3.136445e-01
      vertex   -3.000000e-02 7.687714e-02 -3.107281e-01
    endloop
  endfacet
  facet normal -1.000000e+00 0.000000e+00 0.000000e+00
    outer loop
      vertex   -3.500000e-02 7.462330e-02 -3.203987e-01
      vertex   -3.500000e-02 7.225128e-02 -3.203987e-01
      vertex   -3.500000e-02 7.023578e-02 -3.106740e-01
    endloop
  endfacet
  facet normal -1.000000e+00 0.000000e+00 -0.000000e+00
    outer loop
      vertex   -3.500000e-02 7.023578e-02 -3.106740e-01
      vertex   -3.500000e-02 7.225128e-02 -3.203987e-01
      vertex   -3.500000e-02 7.009267e-02 -3.215176e-01
    endloop
  endfacet
  facet normal -1.000000e+00 0.000000e+00 0.000000e+00
    outer loop
      vertex   -3.500000e-02 7.023578e-02 -3.106740e-01
      vertex   -3.500000e-02 7.009267e-02 -3.215176e-01
      vertex   -3.500000e-02 6.422206e-02 -3.134928e-01
    endloop
  endfacet
  facet normal -1.000000e+00 0.000000e+00 0.000000e+00
    outer loop
      vertex   -3.500000e-02 6.422206e-02 -3.134928e-01
      vertex   -3.500000e-02 7.009267e-02 -3.215176e-01
      vertex   -3.500000e-02 6.870315e-02 -3.235128e-01
    endloop
  endfacet
  facet normal -1.000000e+00 0.000000e+00 -0.000000e+00
    outer loop
      vertex   -3.500000e-02 6.422206e-02 -3.134928e-01
      vertex   -3.500000e-02 6.870315e-02 -3.235128e-01
      vertex   -3.500000e-02 6.001497e-02 -3.186320e-01
    endloop
  endfacet
  facet normal -1.000000e+00 0.000000e+00 0.000000e+00
    outer loop
      vertex   -3.500000e-02 6.001497e-02 -3.186320e-01
      vertex   -3.500000e-02 6.870315e-02 -3.235128e-01
      vertex   -3.500000e-02 6.840225e-02 -3.259255e-01
    endloop
  endfacet
  facet normal -1.000000e+00 0.000000e+00 -0.000000e+00
    outer loop
      vertex   -3.500000e-02 6.001497e-02 -3.186320e-01
      vertex   -3.500000e-02 6.840225e-02 -3.259255e-01
      vertex   -3.500000e-02 5.843928e-02 -3.250840e-01
    endloop
  endfacet
  facet normal -1.000000e+00 0.000000e+00 0.000000e+00
    outer loop
      vertex   -3.500000e-02 5.843928e-02 -3.250840e-01
      vertex   -3.500000e-02 6.840225e-02 -3.259255e-01
      vertex   -3.500000e-02 6.925916e-02 -3.282009e-01
    endloop
  endfacet
  facet normal -1.000000e+00 0.000000e+00 0.000000e+00
    outer loop
      vertex   -3.500000e-02 5.843928e-02 -3.250840e-01
      vertex   -3.500000e-02 6.925916e-02 -3.282009e-01
      vertex   -3.500000e-02 5.843928e-02 -3.606567e-01
    endloop
  endfacet
  facet normal -1.000000e+00 0.000000e+00 0.000000e+00
    outer loop
      vertex   -3.500000e-02 5.843928e-02 -3.606567e-01
      vertex   -3.500000e-02 6.925916e-02 -3.282009e-01
      vertex   -3.500000e-02 7.107683e-02 -3.298157e-01
    endloop
  endfacet
  facet normal -1.000000e+00 0.000000e+00 0.000000e+00
    outer loop
      vertex   -3.500000e-02 5.843928e-02 -3.606567e-01
      vertex   -3.500000e-02 7.107683e-02 -3.298157e-01
      vertex   -3.500000e-02 7.343729e-02 -3.303987e-01
    endloop
  endfacet
  facet normal -1.000000e+00 0.000000e+00 0.000000e+00
    outer loop
      vertex   -3.500000e-02 5.843928e-02 -3.606567e-01
      vertex   -3.500000e-02 7.343729e-02 -3.303987e-01
      vertex   -3.500000e-02 8.843729e-02 -3.606567e-01
    endloop
  endfacet
  facet normal -1.000000e+00 0.000000e+00 0.000000e+00
    outer loop
      vertex   -3.500000e-02 8.843729e-02 -3.606567e-01
      vertex   -3.500000e-02 7.343729e-02 -3.303987e-01
      vertex   -3.500000e-02 7.579775e-02 -3.298157e-01
    endloop
  endfacet
  facet normal -1.000000e+00 0.000000e+00 0.000000e+00
    outer loop
      vertex   -3.500000e-02 8.843729e-02 -3.606567e-01
      vertex   -3.500000e-02 7.579775e-02 -3.298157e-01
      vertex   -3.500000e-02 7.761543e-02 -3.282009e-01
    endloop
  endfacet
  facet normal -1.000000e+00 0.000000e+00 0.000000e+00
    outer loop
      vertex   -3.500000e-02 8.843729e-02 -3.606567e-01
      vertex   -3.500000e-02 7.761543e-02 -3.282009e-01
      vertex   -3.500000e-02 8.843729e-02 -3.253283e-01
    endloop
  endfacet
  facet normal -1.000000e+00 0.000000e+00 0.000000e+00
    outer loop
      vertex   -3.500000e-02 8.843729e-02 -3.253283e-01
      vertex   -3.500000e-02 7.761543e-02 -3.282009e-01
      vertex   -3.500000e-02 7.847234e-02 -3.259255e-01
    endloop
  endfacet
  facet normal -1.000000e+00 -0.000000e+00 0.000000e+00
    outer loop
      vertex   -3.500000e-02 8.843729e-02 -3.253283e-01
      vertex   -3.500000e-02 7.847234e-02 -3.259255e-01
      vertex   -3.500000e-02 8.696694e-02 -3.188516e-01
    endloop
  endfacet
  facet normal -1.000000e+00 0.000000e+00 0.000000e+00
    outer loop
      vertex   -3.500000e-02 8.696694e-02 -3.188516e-01
      vertex   -3.500000e-02 7.847234e-02 -3.259255e-01
      vertex   -3.500000e-02 7.817144e-02 -3.235128e-01
    endloop
  endfacet
  facet normal -1.000000e+00 -0.000000e+00 0.000000e+00
    outer loop
      vertex   -3.500000e-02 8.696694e-02 -3.188516e-01
      vertex   -3.500000e-02 7.817144e-02 -3.235128e-01
      vertex   -3.500000e-02 8.284413e-02 -3.136445e-01
    endloop
  endfacet
  facet normal -1.000000e+00 0.000000e+00 0.000000e+00
    outer loop
      vertex   -3.500000e-02 8.284413e-02 -3.136445e-01
      vertex   -3.500000e-02 7.817144e-02 -3.235128e-01
      vertex   -3.500000e-02 7.678192e-02 -3.215176e-01
    endloop
  endfacet
  facet normal -1.000000e+00 -0.000000e+00 0.000000e+00
    outer loop
      vertex   -3.500000e-02 8.284413e-02 -3.136445e-01
      vertex   -3.500000e-02 7.678192e-02 -3.215176e-01
      vertex   -3.500000e-02 7.687714e-02 -3.107281e-01
    endloop
  endfacet
  facet normal -1.000000e+00 0.000000e+00 0.000000e+00
    outer loop
      vertex   -3.500000e-02 7.687714e-02 -3.107281e-01
      vertex   -3.500000e-02 7.678192e-02 -3.215176e-01
      vertex   -3.500000e-02 7.462330e-02 -3.203987e-01
    endloop
  endfacet
  facet normal -1.000000e+00 -0.000000e+00 0.000000e+00
    outer loop
      vertex   -3.500000e-02 7.687714e-02 -3.107281e-01
      vertex   -3.500000e-02 7.462330e-02 -3.203987e-01
      vertex   -3.500000e-02 7.023578e-02 -3.106740e-01
    endloop
  endfacet
  facet normal -0.000000e+00 -4.602026e-01 -8.878139e-01
    outer loop
      vertex   4.000000e-02 7.462330e-02 -3.203987e-01
      vertex   3.500000e-02 7.462330e-02 -3.203987e-01
      vertex   4.000000e-02 7.678192e-02 -3.215176e-01
    endloop
  endfacet
  facet normal -0.000000e+00 -4.602026e-01 -8.878139e-01
    outer loop
      vertex   4.000000e-02 7.678192e-02 -3.215176e-01
      vertex   3.500000e-02 7.462330e-02 -3.203987e-01
      vertex   3.500000e-02 7.678192e-02 -3.215176e-01
    endloop
  endfacet
  facet normal -0.000000e+00 -8.206070e-01 -5.714929e-01
    outer loop
      vertex   4.000000e-02 7.678192e-02 -3.215176e-01
      vertex   3.500000e-02 7.678192e-02 -3.215176e-01
      vertex   3.500000e-02 7.817144e-02 -3.235128e-01
    endloop
  endfacet
  facet normal 0.000000e+00 -8.206070e-01 -5.714929e-01
    outer loop
      vertex   4.000000e-02 7.678192e-02 -3.215176e-01
      vertex   3.500000e-02 7.817144e-02 -3.235128e-01
      vertex   4.000000e-02 7.817144e-02 -3.235128e-01
    endloop
  endfacet
  facet normal -0.000000e+00 -9.923126e-01 -1.237569e-01
    outer loop
      vertex   4.000000e-02 7.817144e-02 -3.235128e-01
      vertex   3.500000e-02 7.817144e-02 -3.235128e-01
      vertex   3.500000e-02 7.847234e-02 -3.259255e-01
    endloop
  endfacet
  facet normal 0.000000e+00 -9.923126e-01 -1.237569e-01
    outer loop
      vertex   4.000000e-02 7.817144e-02 -3.235128e-01
      vertex   3.500000e-02 7.847234e-02 -3.259255e-01
      vertex   4.000000e-02 7.847234e-02 -3.259255e-01
    endloop
  endfacet
  facet normal 0.000000e+00 -9.358355e-01 3.524370e-01
    outer loop
      vertex   4.000000e-02 7.847234e-02 -3.259255e-01
      vertex   3.500000e-02 7.847234e-02 -3.259255e-01
      vertex   3.500000e-02 7.761543e-02 -3.282009e-01
    endloop
  endfacet
  facet normal 0.000000e+00 -9.358355e-01 3.524370e-01
    outer loop
      vertex   4.000000e-02 7.847234e-02 -3.259255e-01
      vertex   3.500000e-02 7.761543e-02 -3.282009e-01
      vertex   4.000000e-02 7.761543e-02 -3.282009e-01
    endloop
  endfacet
  facet normal 0.000000e+00 -6.641628e-01 7.475879e-01
    outer loop
      vertex   4.000000e-02 7.761543e-02 -3.282009e-01
      vertex   3.500000e-02 7.761543e-02 -3.282009e-01
      vertex   3.500000e-02 7.579775e-02 -3.298157e-01
    endloop
  endfacet
  facet normal 0.000000e+00 -6.641628e-01 7.475879e-01
    outer loop
      vertex   4.000000e-02 7.761543e-02 -3.282009e-01
      vertex   3.500000e-02 7.579775e-02 -3.298157e-01
      vertex   4.000000e-02 7.579775e-02 -3.298157e-01
    endloop
  endfacet
  facet normal 0.000000e+00 -2.397657e-01 9.708308e-01
    outer loop
      vertex   4.000000e-02 7.579775e-02 -3.298157e-01
      vertex   3.500000e-02 7.579775e-02 -3.298157e-01
      vertex   3.500000e-02 7.343729e-02 -3.303987e-01
    endloop
  endfacet
  facet normal 0.000000e+00 -2.397657e-01 9.708308e-01
    outer loop
      vertex   4.000000e-02 7.579775e-02 -3.298157e-01
      vertex   3.500000e-02 7.343729e-02 -3.303987e-01
      vertex   4.000000e-02 7.343729e-02 -3.303987e-01
    endloop
  endfacet
  facet normal 0.000000e+00 2.397657e-01 9.708308e-01
    outer loop
      vertex   4.000000e-02 7.343729e-02 -3.303987e-01
      vertex   3.500000e-02 7.343729e-02 -3.303987e-01
      vertex   3.500000e-02 7.107683e-02 -3.298157e-01
    endloop
  endfacet
  facet normal 0.000000e+00 2.397657e-01 9.708308e-01
    outer loop
      vertex   4.000000e-02 7.343729e-02 -3.303987e-01
      vertex   3.500000e-02 7.107683e-02 -3.298157e-01
      vertex   4.000000e-02 7.107683e-02 -3.298157e-01
    endloop
  endfacet
  facet normal 0.000000e+00 6.641628e-01 7.475879e-01
    outer loop
      vertex   4.000000e-02 7.107683e-02 -3.298157e-01
      vertex   3.500000e-02 7.107683e-02 -3.298157e-01
      vertex   3.500000e-02 6.925916e-02 -3.282009e-01
    endloop
  endfacet
  facet normal 0.000000e+00 6.641628e-01 7.475879e-01
    outer loop
      vertex   4.000000e-02 7.107683e-02 -3.298157e-01
      vertex   3.500000e-02 6.925916e-02 -3.282009e-01
      vertex   4.000000e-02 6.925916e-02 -3.282009e-01
    endloop
  endfacet
  facet normal 0.000000e+00 9.358355e-01 3.524370e-01
    outer loop
      vertex   4.000000e-02 6.925916e-02 -3.282009e-01
      vertex   3.500000e-02 6.925916e-02 -3.282009e-01
      vertex   3.500000e-02 6.840225e-02 -3.259255e-01
    endloop
  endfacet
  facet normal 0.000000e+00 9.358355e-01 3.524370e-01
    outer loop
      vertex   4.000000e-02 6.925916e-02 -3.282009e-01
      vertex   3.500000e-02 6.840225e-02 -3.259255e-01
      vertex   4.000000e-02 6.840225e-02 -3.259255e-01
    endloop
  endfacet
  facet normal 0.000000e+00 9.923126e-01 -1.237569e-01
    outer loop
      vertex   4.000000e-02 6.840225e-02 -3.259255e-01
      vertex   3.500000e-02 6.840225e-02 -3.259255e-01
      vertex   3.500000e-02 6.870315e-02 -3.235128e-01
    endloop
  endfacet
  facet normal 0.000000e+00 9.923126e-01 -1.237569e-01
    outer loop
      vertex   4.000000e-02 6.840225e-02 -3.259255e-01
      vertex   3.500000e-02 6.870315e-02 -3.235128e-01
      vertex   4.000000e-02 6.870315e-02 -3.235128e-01
    endloop
  endfacet
  facet normal 0.000000e+00 8.206070e-01 -5.714929e-01
    outer loop
      vertex   4.000000e-02 6.870315e-02 -3.235128e-01
      vertex   3.500000e-02 6.870315e-02 -3.235128e-01
      vertex   3.500000e-02 7.009267e-02 -3.215176e-01
    endloop
  endfacet
  facet normal 0.000000e+00 8.206070e-01 -5.714929e-01
    outer loop
      vertex   4.000000e-02 6.870315e-02 -3.235128e-01
      vertex   3.500000e-02 7.009267e-02 -3.215176e-01
      vertex   4.000000e-02 7.009267e-02 -3.215176e-01
    endloop
  endfacet
  facet normal 0.000000e+00 4.602026e-01 -8.878139e-01
    outer loop
      vertex   4.000000e-02 7.009267e-02 -3.215176e-01
      vertex   3.500000e-02 7.009267e-02 -3.215176e-01
      vertex   4.000000e-02 7.225128e-02 -3.203987e-01
    endloop
  endfacet
  facet normal 0.000000e+00 4.602026e-01 -8.878139e-01
    outer loop
      vertex   4.000000e-02 7.225128e-02 -3.203987e-01
      vertex   3.500000e-02 7.009267e-02 -3.215176e-01
      vertex   3.500000e-02 7.225128e-02 -3.203987e-01
    endloop
  endfacet
  facet normal 0.000000e+00 0.000000e+00 -1.000000e+00
    outer loop
      vertex   3.500000e-02 7.225128e-02 -3.203987e-01
      vertex   3.500000e-02 7.462330e-02 -3.203987e-01
      vertex   4.000000e-02 7.225128e-02 -3.203987e-01
    endloop
  endfacet
  facet normal 0.000000e+00 0.000000e+00 -1.000000e+00
    outer loop
      vertex   4.000000e-02 7.225128e-02 -3.203987e-01
      vertex   3.500000e-02 7.462330e-02 -3.203987e-01
      vertex   4.000000e-02 7.462330e-02 -3.203987e-01
    endloop
  endfacet
  facet normal 0.000000e+00 -1.000000e+00 0.000000e+00
    outer loop
      vertex   3.500000e-02 5.843928e-02 -3.250840e-01
      vertex   3.500000e-02 5.843928e-02 -3.606567e-01
      vertex   4.000000e-02 5.843928e-02 -3.250840e-01
    endloop
  endfacet
  facet normal 0.000000e+00 -1.000000e+00 -0.000000e+00
    outer loop
      vertex   4.000000e-02 5.843928e-02 -3.250840e-01
      vertex   3.500000e-02 5.843928e-02 -3.606567e-01
      vertex   4.000000e-02 5.843928e-02 -3.606567e-01
    endloop
  endfacet
  facet normal 0.000000e+00 9.751862e-01 2.213862e-01
    outer loop
      vertex   4.000000e-02 8.843729e-02 -3.253283e-01
      vertex   3.500000e-02 8.843729e-02 -3.253283e-01
      vertex   4.000000e-02 8.696694e-02 -3.188516e-01
    endloop
  endfacet
  facet normal 0.000000e+00 9.751862e-01 2.213862e-01
    outer loop
      vertex   4.000000e-02 8.696694e-02 -3.188516e-01
      vertex   3.500000e-02 8.843729e-02 -3.253283e-01
      vertex   3.500000e-02 8.696694e-02 -3.188516e-01
    endloop
  endfacet
  facet normal 0.000000e+00 7.840036e-01 6.207563e-01
    outer loop
      vertex   4.000000e-02 8.696694e-02 -3.188516e-01
      vertex   3.500000e-02 8.696694e-02 -3.188516e-01
      vertex   4.000000e-02 8.284413e-02 -3.136445e-01
    endloop
  endfacet
  facet normal 0.000000e+00 7.840036e-01 6.207563e-01
    outer loop
      vertex   4.000000e-02 8.284413e-02 -3.136445e-01
      vertex   3.500000e-02 8.696694e-02 -3.188516e-01
      vertex   3.500000e-02 8.284413e-02 -3.136445e-01
    endloop
  endfacet
  facet normal 0.000000e+00 4.391191e-01 8.984289e-01
    outer loop
      vertex   4.000000e-02 8.284413e-02 -3.136445e-01
      vertex   3.500000e-02 8.284413e-02 -3.136445e-01
      vertex   4.000000e-02 7.687714e-02 -3.107281e-01
    endloop
  endfacet
  facet normal 0.000000e+00 4.391191e-01 8.984289e-01
    outer loop
      vertex   4.000000e-02 7.687714e-02 -3.107281e-01
      vertex   3.500000e-02 8.284413e-02 -3.136445e-01
      vertex   3.500000e-02 7.687714e-02 -3.107281e-01
    endloop
  endfacet
  facet normal 0.000000e+00 8.146468e-03 9.999668e-01
    outer loop
      vertex   4.000000e-02 7.687714e-02 -3.107281e-01
      vertex   3.500000e-02 7.687714e-02 -3.107281e-01
      vertex   4.000000e-02 7.023578e-02 -3.106740e-01
    endloop
  endfacet
  facet normal 0.000000e+00 8.146468e-03 9.999668e-01
    outer loop
      vertex   4.000000e-02 7.023578e-02 -3.106740e-01
      vertex   3.500000e-02 7.687714e-02 -3.107281e-01
      vertex   3.500000e-02 7.023578e-02 -3.106740e-01
    endloop
  endfacet
  facet normal 0.000000e+00 -4.244232e-01 9.054639e-01
    outer loop
      vertex   4.000000e-02 7.023578e-02 -3.106740e-01
      vertex   3.500000e-02 7.023578e-02 -3.106740e-01
      vertex   4.000000e-02 6.422206e-02 -3.134928e-01
    endloop
  endfacet
  facet normal 0.000000e+00 -4.244232e-01 9.054639e-01
    outer loop
      vertex   4.000000e-02 6.422206e-02 -3.134928e-01
      vertex   3.500000e-02 7.023578e-02 -3.106740e-01
      vertex   3.500000e-02 6.422206e-02 -3.134928e-01
    endloop
  endfacet
  facet normal 0.000000e+00 -7.737859e-01 6.334472e-01
    outer loop
      vertex   4.000000e-02 6.422206e-02 -3.134928e-01
      vertex   3.500000e-02 6.422206e-02 -3.134928e-01
      vertex   4.000000e-02 6.001497e-02 -3.186320e-01
    endloop
  endfacet
  facet normal 0.000000e+00 -7.737859e-01 6.334472e-01
    outer loop
      vertex   4.000000e-02 6.001497e-02 -3.186320e-01
      vertex   3.500000e-02 6.422206e-02 -3.134928e-01
      vertex   3.500000e-02 6.001497e-02 -3.186320e-01
    endloop
  endfacet
  facet normal 0.000000e+00 -9.714499e-01 2.372449e-01
    outer loop
      vertex   4.000000e-02 6.001497e-02 -3.186320e-01
      vertex   3.500000e-02 6.001497e-02 -3.186320e-01
      vertex   4.000000e-02 5.843928e-02 -3.250840e-01
    endloop
  endfacet
  facet normal 0.000000e+00 -9.714499e-01 2.372449e-01
    outer loop
      vertex   4.000000e-02 5.843928e-02 -3.250840e-01
      vertex   3.500000e-02 6.001497e-02 -3.186320e-01
      vertex   3.500000e-02 5.843928e-02 -3.250840e-01
    endloop
  endfacet
  facet normal 0.000000e+00 1.000000e+00 -0.000000e+00
    outer loop
      vertex   3.500000e-02 8.843729e-02 -3.606567e-01
      vertex   3.500000e-02 8.843729e-02 -3.253283e-01
      vertex   4.000000e-02 8.843729e-02 -3.606567e-01
    endloop
  endfacet
  facet normal 0.000000e+00 1.000000e+00 0.000000e+00
    outer loop
      vertex   4.000000e-02 8.843729e-02 -3.606567e-01
      vertex   3.500000e-02 8.843729e-02 -3.253283e-01
      vertex   4.000000e-02 8.843729e-02 -3.253283e-01
    endloop
  endfacet
  facet normal 1.000000e+00 0.000000e+00 0.000000e+00
    outer loop
      vertex   4.000000e-02 7.009267e-02 -3.215176e-01
      vertex   4.000000e-02 7.225128e-02 -3.203987e-01
      vertex   4.000000e-02 7.023578e-02 -3.106740e-01
    endloop
  endfacet
  facet normal 1.000000e+00 0.000000e+00 0.000000e+00
    outer loop
      vertex   4.000000e-02 7.023578e-02 -3.106740e-01
      vertex   4.000000e-02 7.225128e-02 -3.203987e-01
      vertex   4.000000e-02 7.462330e-02 -3.203987e-01
    endloop
  endfacet
  facet normal 1.000000e+00 0.000000e+00 0.000000e+00
    outer loop
      vertex   4.000000e-02 7.023578e-02 -3.106740e-01
      vertex   4.000000e-02 7.462330e-02 -3.203987e-01
      vertex   4.000000e-02 7.687714e-02 -3.107281e-01
    endloop
  endfacet
  facet normal 1.000000e+00 0.000000e+00 0.000000e+00
    outer loop
      vertex   4.000000e-02 7.687714e-02 -3.107281e-01
      vertex   4.000000e-02 7.462330e-02 -3.203987e-01
      vertex   4.000000e-02 7.678192e-02 -3.215176e-01
    endloop
  endfacet
  facet normal 1.000000e+00 0.000000e+00 0.000000e+00
    outer loop
      vertex   4.000000e-02 7.687714e-02 -3.107281e-01
      vertex   4.000000e-02 7.678192e-02 -3.215176e-01
      vertex   4.000000e-02 8.284413e-02 -3.136445e-01
    endloop
  endfacet
  facet normal 1.000000e+00 0.000000e+00 0.000000e+00
    outer loop
      vertex   4.000000e-02 8.284413e-02 -3.136445e-01
      vertex   4.000000e-02 7.678192e-02 -3.215176e-01
      vertex   4.000000e-02 7.817144e-02 -3.235128e-01
    endloop
  endfacet
  facet normal 1.000000e+00 0.000000e+00 0.000000e+00
    outer loop
      vertex   4.000000e-02 8.284413e-02 -3.136445e-01
      vertex   4.000000e-02 7.817144e-02 -3.235128e-01
      vertex   4.000000e-02 8.696694e-02 -3.188516e-01
    endloop
  endfacet
  facet normal 1.000000e+00 0.000000e+00 0.000000e+00
    outer loop
      vertex   4.000000e-02 8.696694e-02 -3.188516e-01
      vertex   4.000000e-02 7.817144e-02 -3.235128e-01
      vertex   4.000000e-02 7.847234e-02 -3.259255e-01
    endloop
  endfacet
  facet normal 1.000000e+00 0.000000e+00 0.000000e+00
    outer loop
      vertex   4.000000e-02 8.696694e-02 -3.188516e-01
      vertex   4.000000e-02 7.847234e-02 -3.259255e-01
      vertex   4.000000e-02 8.843729e-02 -3.253283e-01
    endloop
  endfacet
  facet normal 1.000000e+00 0.000000e+00 0.000000e+00
    outer loop
      vertex   4.000000e-02 8.843729e-02 -3.253283e-01
      vertex   4.000000e-02 7.847234e-02 -3.259255e-01
      vertex   4.000000e-02 7.761543e-02 -3.282009e-01
    endloop
  endfacet
  facet normal 1.000000e+00 -1.042702e-16 3.928231e-16
    outer loop
      vertex   4.000000e-02 8.843729e-02 -3.253283e-01
      vertex   4.000000e-02 7.761543e-02 -3.282009e-01
      vertex   4.000000e-02 8.843729e-02 -3.606567e-01
    endloop
  endfacet
  facet normal 1.000000e+00 -2.930621e-16 3.298735e-16
    outer loop
      vertex   4.000000e-02 8.843729e-02 -3.606567e-01
      vertex   4.000000e-02 7.761543e-02 -3.282009e-01
      vertex   4.000000e-02 7.579775e-02 -3.298157e-01
    endloop
  endfacet
  facet normal 1.000000e+00 -1.009168e-16 4.086203e-16
    outer loop
      vertex   4.000000e-02 8.843729e-02 -3.606567e-01
      vertex   4.000000e-02 7.579775e-02 -3.298157e-01
      vertex   4.000000e-02 7.343729e-02 -3.303987e-01
    endloop
  endfacet
  facet normal 1.000000e+00 0.000000e+00 4.586485e-16
    outer loop
      vertex   4.000000e-02 8.843729e-02 -3.606567e-01
      vertex   4.000000e-02 7.343729e-02 -3.303987e-01
      vertex   4.000000e-02 5.843928e-02 -3.606567e-01
    endloop
  endfacet
  facet normal 1.000000e+00 1.009183e-16 4.086262e-16
    outer loop
      vertex   4.000000e-02 5.843928e-02 -3.606567e-01
      vertex   4.000000e-02 7.343729e-02 -3.303987e-01
      vertex   4.000000e-02 7.107683e-02 -3.298157e-01
    endloop
  endfacet
  facet normal 1.000000e+00 2.930744e-16 3.298874e-16
    outer loop
      vertex   4.000000e-02 5.843928e-02 -3.606567e-01
      vertex   4.000000e-02 7.107683e-02 -3.298157e-01
      vertex   4.000000e-02 6.925916e-02 -3.282009e-01
    endloop
  endfacet
  facet normal 1.000000e+00 1.123846e-16 3.901244e-16
    outer loop
      vertex   4.000000e-02 5.843928e-02 -3.606567e-01
      vertex   4.000000e-02 6.925916e-02 -3.282009e-01
      vertex   4.000000e-02 5.843928e-02 -3.250840e-01
    endloop
  endfacet
  facet normal 1.000000e+00 0.000000e+00 0.000000e+00
    outer loop
      vertex   4.000000e-02 5.843928e-02 -3.250840e-01
      vertex   4.000000e-02 6.925916e-02 -3.282009e-01
      vertex   4.000000e-02 6.840225e-02 -3.259255e-01
    endloop
  endfacet
  facet normal 1.000000e+00 -0.000000e+00 0.000000e+00
    outer loop
      vertex   4.000000e-02 5.843928e-02 -3.250840e-01
      vertex   4.000000e-02 6.840225e-02 -3.259255e-01
      vertex   4.000000e-02 6.001497e-02 -3.186320e-01
    endloop
  endfacet
  facet normal 1.000000e+00 0.000000e+00 0.000000e+00
    outer loop
      vertex   4.000000e-02 6.001497e-02 -3.186320e-01
      vertex   4.000000e-02 6.840225e-02 -3.259255e-01
      vertex   4.000000e-02 6.870315e-02 -3.235128e-01
    endloop
  endfacet
  facet normal 1.000000e+00 -0.000000e+00 0.000000e+00
    outer loop
      vertex   4.000000e-02 6.001497e-02 -3.186320e-01
      vertex   4.000000e-02 6.870315e-02 -3.235128e-01
      vertex   4.000000e-02 6.422206e-02 -3.134928e-01
    endloop
  endfacet
  facet normal 1.000000e+00 0.000000e+00 0.000000e+00
    outer loop
      vertex   4.000000e-02 6.422206e-02 -3.134928e-01
      vertex   4.000000e-02 6.870315e-02 -3.235128e-01
      vertex   4.000000e-02 7.009267e-02 -3.215176e-01
    endloop
  endfacet
  facet normal 1.000000e+00 -0.000000e+00 0.000000e+00
    outer loop
      vertex   4.000000e-02 6.422206e-02 -3.134928e-01
      vertex   4.000000e-02 7.009267e-02 -3.215176e-01
      vertex   4.000000e-02 7.023578e-02 -3.106740e-01
    endloop
  endfacet
  facet normal -1.000000e+00 0.000000e+00 0.000000e+00
    outer loop
      vertex   3.500000e-02 7.225128e-02 -3.203987e-01
      vertex   3.500000e-02 7.023578e-02 -3.106740e-01
      vertex   3.500000e-02 7.462330e-02 -3.203987e-01
    endloop
  endfacet
  facet normal -1.000000e+00 0.000000e+00 0.000000e+00
    outer loop
      vertex   3.500000e-02 7.462330e-02 -3.203987e-01
      vertex   3.500000e-02 7.023578e-02 -3.106740e-01
      vertex   3.500000e-02 7.687714e-02 -3.107281e-01
    endloop
  endfacet
  facet normal -1.000000e+00 0.000000e+00 0.000000e+00
    outer loop
      vertex   3.500000e-02 7.462330e-02 -3.203987e-01
      vertex   3.500000e-02 7.687714e-02 -3.107281e-01
      vertex   3.500000e-02 7.678192e-02 -3.215176e-01
    endloop
  endfacet
  facet normal -1.000000e+00 0.000000e+00 0.000000e+00
    outer loop
      vertex   3.500000e-02 7.678192e-02 -3.215176e-01
      vertex   3.500000e-02 7.687714e-02 -3.107281e-01
      vertex   3.500000e-02 8.284413e-02 -3.136445e-01
    endloop
  endfacet
  facet normal -1.000000e+00 0.000000e+00 0.000000e+00
    outer loop
      vertex   3.500000e-02 7.678192e-02 -3.215176e-01
      vertex   3.500000e-02 8.284413e-02 -3.136445e-01
      vertex   3.500000e-02 7.817144e-02 -3.235128e-01
    endloop
  endfacet
  facet normal -1.000000e+00 0.000000e+00 0.000000e+00
    outer loop
      vertex   3.500000e-02 7.817144e-02 -3.235128e-01
      vertex   3.500000e-02 8.284413e-02 -3.136445e-01
      vertex   3.500000e-02 8.696694e-02 -3.188516e-01
    endloop
  endfacet
  facet normal -1.000000e+00 0.000000e+00 0.000000e+00
    outer loop
      vertex   3.500000e-02 7.817144e-02 -3.235128e-01
      vertex   3.500000e-02 8.696694e-02 -3.188516e-01
      vertex   3.500000e-02 7.847234e-02 -3.259255e-01
    endloop
  endfacet
  facet normal -1.000000e+00 0.000000e+00 0.000000e+00
    outer loop
      vertex   3.500000e-02 7.847234e-02 -3.259255e-01
      vertex   3.500000e-02 8.696694e-02 -3.188516e-01
      vertex   3.500000e-02 8.843729e-02 -3.253283e-01
    endloop
  endfacet
  facet normal -1.000000e+00 0.000000e+00 -0.000000e+00
    outer loop
      vertex   3.500000e-02 7.847234e-02 -3.259255e-01
      vertex   3.500000e-02 8.843729e-02 -3.253283e-01
      vertex   3.500000e-02 7.761543e-02 -3.282009e-01
    endloop
  endfacet
  facet normal -1.000000e+00 5.213510e-17 -1.964116e-16
    outer loop
      vertex   3.500000e-02 7.761543e-02 -3.282009e-01
      vertex   3.500000e-02 8.843729e-02 -3.253283e-01
      vertex   3.500000e-02 8.843729e-02 -3.606567e-01
    endloop
  endfacet
  facet normal -1.000000e+00 1.465311e-16 -1.649367e-16
    outer loop
      vertex   3.500000e-02 7.761543e-02 -3.282009e-01
      vertex   3.500000e-02 8.843729e-02 -3.606567e-01
      vertex   3.500000e-02 7.579775e-02 -3.298157e-01
    endloop
  endfacet
  facet normal -1.000000e+00 5.045840e-17 -2.043102e-16
    outer loop
      vertex   3.500000e-02 7.579775e-02 -3.298157e-01
      vertex   3.500000e-02 8.843729e-02 -3.606567e-01
      vertex   3.500000e-02 7.343729e-02 -3.303987e-01
    endloop
  endfacet
  facet normal -1.000000e+00 0.000000e+00 -2.293242e-16
    outer loop
      vertex   3.500000e-02 7.343729e-02 -3.303987e-01
      vertex   3.500000e-02 8.843729e-02 -3.606567e-01
      vertex   3.500000e-02 5.843928e-02 -3.606567e-01
    endloop
  endfacet
  facet normal -1.000000e+00 -5.045913e-17 -2.043131e-16
    outer loop
      vertex   3.500000e-02 7.343729e-02 -3.303987e-01
      vertex   3.500000e-02 5.843928e-02 -3.606567e-01
      vertex   3.500000e-02 7.107683e-02 -3.298157e-01
    endloop
  endfacet
  facet normal -1.000000e+00 -1.465372e-16 -1.649437e-16
    outer loop
      vertex   3.500000e-02 7.107683e-02 -3.298157e-01
      vertex   3.500000e-02 5.843928e-02 -3.606567e-01
      vertex   3.500000e-02 6.925916e-02 -3.282009e-01
    endloop
  endfacet
  facet normal -1.000000e+00 -5.619228e-17 -1.950622e-16
    outer loop
      vertex   3.500000e-02 6.925916e-02 -3.282009e-01
      vertex   3.500000e-02 5.843928e-02 -3.606567e-01
      vertex   3.500000e-02 5.843928e-02 -3.250840e-01
    endloop
  endfacet
  facet normal -1.000000e+00 0.000000e+00 0.000000e+00
    outer loop
      vertex   3.500000e-02 6.925916e-02 -3.282009e-01
      vertex   3.500000e-02 5.843928e-02 -3.250840e-01
      vertex   3.500000e-02 6.840225e-02 -3.259255e-01
    endloop
  endfacet
  facet normal -1.000000e+00 0.000000e+00 0.000000e+00
    outer loop
      vertex   3.500000e-02 6.840225e-02 -3.259255e-01
      vertex   3.500000e-02 5.843928e-02 -3.250840e-01
      vertex   3.500000e-02 6.001497e-02 -3.186320e-01
    endloop
  endfacet
  facet normal -1.000000e+00 0.000000e+00 0.000000e+00
    outer loop
      vertex   3.500000e-02 6.840225e-02 -3.259255e-01
      vertex   3.500000e-02 6.001497e-02 -3.186320e-01
      vertex   3.500000e-02 6.870315e-02 -3.235128e-01
    endloop
  endfacet
  facet normal -1.000000e+00 0.000000e+00 0.000000e+00
    outer loop
      vertex   3.500000e-02 6.870315e-02 -3.235128e-01
      vertex   3.500000e-02 6.001497e-02 -3.186320e-01
      vertex   3.500000e-02 6.422206e-02 -3.134928e-01
    endloop
  endfacet
  facet normal -1.000000e+00 0.000000e+00 0.000000e+00
    outer loop
      vertex   3.500000e-02 6.870315e-02 -3.235128e-01
      vertex   3.500000e-02 6.422206e-02 -3.134928e-01
      vertex   3.500000e-02 7.009267e-02 -3.215176e-01
    endloop
  endfacet
  facet normal -1.000000e+00 0.000000e+00 0.000000e+00
    outer loop
      vertex   3.500000e-02 7.009267e-02 -3.215176e-01
      vertex   3.500000e-02 6.422206e-02 -3.134928e-01
      vertex   3.500000e-02 7.023578e-02 -3.106740e-01
    endloop
  endfacet
  facet normal -1.000000e+00 0.000000e+00 0.000000e+00
    outer loop
      vertex   3.500000e-02 7.009267e-02 -3.215176e-01
      vertex   3.500000e-02 7.023578e-02 -3.106740e-01
      vertex   3.500000e-02 7.225128e-02 -3.203987e-01
    endloop
  endfacet
endsolid
