solid ASCII
  facet normal 2.588190e-01 -1.496598e-17 -9.659258e-01
    outer loop
      vertex   2.500000e-03 8.843729e-02 -1.897288e-01
      vertex   2.500000e-03 5.843729e-02 -1.897288e-01
      vertex   -5.848270e-17 8.843729e-02 -1.903987e-01
    endloop
  endfacet
  facet normal 2.588190e-01 1.056540e-17 -9.659258e-01
    outer loop
      vertex   -5.848270e-17 8.843729e-02 -1.903987e-01
      vertex   2.500000e-03 5.843729e-02 -1.897288e-01
      vertex   -5.725805e-17 5.843729e-02 -1.903987e-01
    endloop
  endfacet
  facet normal -2.588190e-01 -1.056540e-17 -9.659258e-01
    outer loop
      vertex   -5.848270e-17 8.843729e-02 -1.903987e-01
      vertex   -5.725805e-17 5.843729e-02 -1.903987e-01
      vertex   -2.500000e-03 8.843729e-02 -1.897288e-01
    endloop
  endfacet
  facet normal -2.588190e-01 1.496598e-17 -9.659258e-01
    outer loop
      vertex   -2.500000e-03 8.843729e-02 -1.897288e-01
      vertex   -5.725805e-17 5.843729e-02 -1.903987e-01
      vertex   -2.500000e-03 5.843729e-02 -1.897288e-01
    endloop
  endfacet
  facet normal -7.071068e-01 4.088782e-17 -7.071068e-01
    outer loop
      vertex   -2.500000e-03 8.843729e-02 -1.897288e-01
      vertex   -2.500000e-03 5.843729e-02 -1.897288e-01
      vertex   -4.330127e-03 8.843729e-02 -1.878987e-01
    endloop
  endfacet
  facet normal -7.071068e-01 6.133174e-17 -7.071068e-01
    outer loop
      vertex   -4.330127e-03 8.843729e-02 -1.878987e-01
      vertex   -2.500000e-03 5.843729e-02 -1.897288e-01
      vertex   -4.330127e-03 5.843729e-02 -1.878987e-01
    endloop
  endfacet
  facet normal -9.659258e-01 8.378071e-17 -2.588190e-01
    outer loop
      vertex   -4.330127e-03 8.843729e-02 -1.878987e-01
      vertex   -4.330127e-03 5.843729e-02 -1.878987e-01
      vertex   -5.000000e-03 8.843729e-02 -1.853987e-01
    endloop
  endfacet
  facet normal -9.659258e-01 -0.000000e+00 -2.588190e-01
    outer loop
      vertex   -5.000000e-03 8.843729e-02 -1.853987e-01
      vertex   -4.330127e-03 5.843729e-02 -1.878987e-01
      vertex   -5.000000e-03 5.843729e-02 -1.853987e-01
    endloop
  endfacet
  facet normal -9.659258e-01 0.000000e+00 2.588190e-01
    outer loop
      vertex   -5.000000e-03 8.843729e-02 -1.853987e-01
      vertex   -5.000000e-03 5.843729e-02 -1.853987e-01
      vertex   -4.330127e-03 8.843729e-02 -1.828987e-01
    endloop
  endfacet
  facet normal -9.659258e-01 -2.792690e-17 2.588190e-01
    outer loop
      vertex   -4.330127e-03 8.843729e-02 -1.828987e-01
      vertex   -5.000000e-03 5.843729e-02 -1.853987e-01
      vertex   -4.330127e-03 5.843729e-02 -1.828987e-01
    endloop
  endfacet
  facet normal -7.071068e-01 -2.044391e-17 7.071068e-01
    outer loop
      vertex   -4.330127e-03 8.843729e-02 -1.828987e-01
      vertex   -4.330127e-03 5.843729e-02 -1.828987e-01
      vertex   -2.500000e-03 8.843729e-02 -1.810685e-01
    endloop
  endfacet
  facet normal -7.071068e-01 -6.133174e-17 7.071068e-01
    outer loop
      vertex   -2.500000e-03 8.843729e-02 -1.810685e-01
      vertex   -4.330127e-03 5.843729e-02 -1.828987e-01
      vertex   -2.500000e-03 5.843729e-02 -1.810685e-01
    endloop
  endfacet
  facet normal -2.588190e-01 -2.244897e-17 9.659258e-01
    outer loop
      vertex   -2.500000e-03 8.843729e-02 -1.810685e-01
      vertex   -2.500000e-03 5.843729e-02 -1.810685e-01
      vertex   -5.925815e-17 8.843729e-02 -1.803987e-01
    endloop
  endfacet
  facet normal -2.588190e-01 0.000000e+00 9.659258e-01
    outer loop
      vertex   -5.925815e-17 8.843729e-02 -1.803987e-01
      vertex   -2.500000e-03 5.843729e-02 -1.810685e-01
      vertex   -5.925815e-17 5.843729e-02 -1.803987e-01
    endloop
  endfacet
  facet normal 2.588190e-01 0.000000e+00 9.659258e-01
    outer loop
      vertex   -5.925815e-17 8.843729e-02 -1.803987e-01
      vertex   -5.925815e-17 5.843729e-02 -1.803987e-01
      vertex   2.500000e-03 8.843729e-02 -1.810685e-01
    endloop
  endfacet
  facet normal 2.588190e-01 1.496598e-17 9.659258e-01
    outer loop
      vertex   2.500000e-03 8.843729e-02 -1.810685e-01
      vertex   -5.925815e-17 5.843729e-02 -1.803987e-01
      vertex   2.500000e-03 5.843729e-02 -1.810685e-01
    endloop
  endfacet
  facet normal 7.071068e-01 4.088782e-17 7.071068e-01
    outer loop
      vertex   2.500000e-03 8.843729e-02 -1.810685e-01
      vertex   2.500000e-03 5.843729e-02 -1.810685e-01
      vertex   4.330127e-03 8.843729e-02 -1.828987e-01
    endloop
  endfacet
  facet normal 7.071068e-01 4.088782e-17 7.071068e-01
    outer loop
      vertex   4.330127e-03 8.843729e-02 -1.828987e-01
      vertex   2.500000e-03 5.843729e-02 -1.810685e-01
      vertex   4.330127e-03 5.843729e-02 -1.828987e-01
    endloop
  endfacet
  facet normal 9.659258e-01 5.585381e-17 2.588190e-01
    outer loop
      vertex   4.330127e-03 8.843729e-02 -1.828987e-01
      vertex   4.330127e-03 5.843729e-02 -1.828987e-01
      vertex   5.000000e-03 8.843729e-02 -1.853987e-01
    endloop
  endfacet
  facet normal 9.659258e-01 0.000000e+00 2.588190e-01
    outer loop
      vertex   5.000000e-03 8.843729e-02 -1.853987e-01
      vertex   4.330127e-03 5.843729e-02 -1.828987e-01
      vertex   5.000000e-03 5.843729e-02 -1.853987e-01
    endloop
  endfacet
  facet normal 9.659258e-01 0.000000e+00 -2.588190e-01
    outer loop
      vertex   5.000000e-03 8.843729e-02 -1.853987e-01
      vertex   5.000000e-03 5.843729e-02 -1.853987e-01
      vertex   4.330127e-03 8.843729e-02 -1.878987e-01
    endloop
  endfacet
  facet normal 9.659258e-01 -5.585381e-17 -2.588190e-01
    outer loop
      vertex   4.330127e-03 8.843729e-02 -1.878987e-01
      vertex   5.000000e-03 5.843729e-02 -1.853987e-01
      vertex   4.330127e-03 5.843729e-02 -1.878987e-01
    endloop
  endfacet
  facet normal 7.071068e-01 -4.088782e-17 -7.071068e-01
    outer loop
      vertex   4.330127e-03 8.843729e-02 -1.878987e-01
      vertex   4.330127e-03 5.843729e-02 -1.878987e-01
      vertex   2.500000e-03 8.843729e-02 -1.897288e-01
    endloop
  endfacet
  facet normal 7.071068e-01 -4.088782e-17 -7.071068e-01
    outer loop
      vertex   2.500000e-03 8.843729e-02 -1.897288e-01
      vertex   4.330127e-03 5.843729e-02 -1.878987e-01
      vertex   2.500000e-03 5.843729e-02 -1.897288e-01
    endloop
  endfacet
  facet normal 0.000000e+00 1.000000e+00 0.000000e+00
    outer loop
      vertex   2.000000e-02 9.343729e-02 -1.853987e-01
      vertex   4.330127e-03 9.343729e-02 -4.789867e-02
      vertex   2.000000e-02 9.343729e-02 -4.539867e-02
    endloop
  endfacet
  facet normal 0.000000e+00 1.000000e+00 0.000000e+00
    outer loop
      vertex   2.000000e-02 9.343729e-02 -4.539867e-02
      vertex   4.330127e-03 9.343729e-02 -4.789867e-02
      vertex   5.000000e-03 9.343729e-02 -4.539867e-02
    endloop
  endfacet
  facet normal 0.000000e+00 1.000000e+00 0.000000e+00
    outer loop
      vertex   2.000000e-02 9.343729e-02 -4.539867e-02
      vertex   5.000000e-03 9.343729e-02 -4.539867e-02
      vertex   1.414214e-02 9.343729e-02 -3.125653e-02
    endloop
  endfacet
  facet normal 0.000000e+00 1.000000e+00 0.000000e+00
    outer loop
      vertex   1.414214e-02 9.343729e-02 -3.125653e-02
      vertex   5.000000e-03 9.343729e-02 -4.539867e-02
      vertex   7.653669e-03 9.343729e-02 -2.692108e-02
    endloop
  endfacet
  facet normal 0.000000e+00 1.000000e+00 0.000000e+00
    outer loop
      vertex   7.653669e-03 9.343729e-02 -2.692108e-02
      vertex   5.000000e-03 9.343729e-02 -4.539867e-02
      vertex   4.330127e-03 9.343729e-02 -4.289867e-02
    endloop
  endfacet
  facet normal 0.000000e+00 1.000000e+00 0.000000e+00
    outer loop
      vertex   7.653669e-03 9.343729e-02 -2.692108e-02
      vertex   4.330127e-03 9.343729e-02 -4.289867e-02
      vertex   2.500000e-03 9.343729e-02 -4.106854e-02
    endloop
  endfacet
  facet normal 0.000000e+00 1.000000e+00 -0.000000e+00
    outer loop
      vertex   1.847759e-02 9.343729e-02 -1.930523e-01
      vertex   1.414214e-02 9.343729e-02 -1.995408e-01
      vertex   2.000000e-02 9.343729e-02 -1.853987e-01
    endloop
  endfacet
  facet normal 0.000000e+00 1.000000e+00 0.000000e+00
    outer loop
      vertex   2.000000e-02 9.343729e-02 -1.853987e-01
      vertex   1.414214e-02 9.343729e-02 -1.995408e-01
      vertex   4.330127e-03 9.343729e-02 -4.789867e-02
    endloop
  endfacet
  facet normal 0.000000e+00 1.000000e+00 0.000000e+00
    outer loop
      vertex   1.414214e-02 9.343729e-02 -1.995408e-01
      vertex   7.653669e-03 9.343729e-02 -2.038763e-01
      vertex   4.330127e-03 9.343729e-02 -4.789867e-02
    endloop
  endfacet
  facet normal 0.000000e+00 1.000000e+00 0.000000e+00
    outer loop
      vertex   4.330127e-03 9.343729e-02 -4.789867e-02
      vertex   7.653669e-03 9.343729e-02 -2.038763e-01
      vertex   2.500000e-03 9.343729e-02 -4.972879e-02
    endloop
  endfacet
  facet normal 0.000000e+00 1.000000e+00 0.000000e+00
    outer loop
      vertex   2.500000e-03 9.343729e-02 -4.972879e-02
      vertex   7.653669e-03 9.343729e-02 -2.038763e-01
      vertex   -5.823800e-17 9.343729e-02 -2.053987e-01
    endloop
  endfacet
  facet normal 0.000000e+00 1.000000e+00 0.000000e+00
    outer loop
      vertex   2.500000e-03 9.343729e-02 -4.972879e-02
      vertex   -5.823800e-17 9.343729e-02 -2.053987e-01
      vertex   -7.729928e-17 9.343729e-02 -5.039867e-02
    endloop
  endfacet
  facet normal 0.000000e+00 1.000000e+00 0.000000e+00
    outer loop
      vertex   -7.729928e-17 9.343729e-02 -5.039867e-02
      vertex   -5.823800e-17 9.343729e-02 -2.053987e-01
      vertex   -2.500000e-03 9.343729e-02 -4.972879e-02
    endloop
  endfacet
  facet normal 0.000000e+00 1.000000e+00 0.000000e+00
    outer loop
      vertex   -2.500000e-03 9.343729e-02 -4.972879e-02
      vertex   -5.823800e-17 9.343729e-02 -2.053987e-01
      vertex   -7.653669e-03 9.343729e-02 -2.038763e-01
    endloop
  endfacet
  facet normal 0.000000e+00 1.000000e+00 0.000000e+00
    outer loop
      vertex   -2.500000e-03 9.343729e-02 -4.972879e-02
      vertex   -7.653669e-03 9.343729e-02 -2.038763e-01
      vertex   -4.330127e-03 9.343729e-02 -4.789867e-02
    endloop
  endfacet
  facet normal 0.000000e+00 1.000000e+00 0.000000e+00
    outer loop
      vertex   -4.330127e-03 9.343729e-02 -4.789867e-02
      vertex   -7.653669e-03 9.343729e-02 -2.038763e-01
      vertex   -1.414214e-02 9.343729e-02 -1.995408e-01
    endloop
  endfacet
  facet normal 0.000000e+00 1.000000e+00 0.000000e+00
    outer loop
      vertex   -4.330127e-03 9.343729e-02 -4.789867e-02
      vertex   -1.414214e-02 9.343729e-02 -1.995408e-01
      vertex   -2.000000e-02 9.343729e-02 -1.853987e-01
    endloop
  endfacet
  facet normal 0.000000e+00 1.000000e+00 0.000000e+00
    outer loop
      vertex   -2.000000e-02 9.343729e-02 -1.853987e-01
      vertex   -1.414214e-02 9.343729e-02 -1.995408e-01
      vertex   -1.847759e-02 9.343729e-02 -1.930523e-01
    endloop
  endfacet
  facet normal 0.000000e+00 1.000000e+00 -0.000000e+00
    outer loop
      vertex   -2.000000e-02 9.343729e-02 -1.853987e-01
      vertex   -2.000000e-02 9.343729e-02 -4.539867e-02
      vertex   -4.330127e-03 9.343729e-02 -4.789867e-02
    endloop
  endfacet
  facet normal 0.000000e+00 1.000000e+00 0.000000e+00
    outer loop
      vertex   -4.330127e-03 9.343729e-02 -4.789867e-02
      vertex   -2.000000e-02 9.343729e-02 -4.539867e-02
      vertex   -5.000000e-03 9.343729e-02 -4.539867e-02
    endloop
  endfacet
  facet normal 0.000000e+00 1.000000e+00 0.000000e+00
    outer loop
      vertex   -5.000000e-03 9.343729e-02 -4.539867e-02
      vertex   -2.000000e-02 9.343729e-02 -4.539867e-02
      vertex   -1.414214e-02 9.343729e-02 -3.125653e-02
    endloop
  endfacet
  facet normal 0.000000e+00 1.000000e+00 0.000000e+00
    outer loop
      vertex   -5.000000e-03 9.343729e-02 -4.539867e-02
      vertex   -1.414214e-02 9.343729e-02 -3.125653e-02
      vertex   -7.653669e-03 9.343729e-02 -2.692108e-02
    endloop
  endfacet
  facet normal 0.000000e+00 1.000000e+00 0.000000e+00
    outer loop
      vertex   -2.000000e-02 9.343729e-02 -4.539867e-02
      vertex   -1.847759e-02 9.343729e-02 -3.774500e-02
      vertex   -1.414214e-02 9.343729e-02 -3.125653e-02
    endloop
  endfacet
  facet normal 0.000000e+00 1.000000e+00 0.000000e+00
    outer loop
      vertex   -8.076873e-17 9.343729e-02 -2.539867e-02
      vertex   -2.500000e-03 9.343729e-02 -4.106854e-02
      vertex   -7.653669e-03 9.343729e-02 -2.692108e-02
    endloop
  endfacet
  facet normal 0.000000e+00 1.000000e+00 0.000000e+00
    outer loop
      vertex   -7.653669e-03 9.343729e-02 -2.692108e-02
      vertex   -2.500000e-03 9.343729e-02 -4.106854e-02
      vertex   -4.330127e-03 9.343729e-02 -4.289867e-02
    endloop
  endfacet
  facet normal 0.000000e+00 1.000000e+00 0.000000e+00
    outer loop
      vertex   -7.653669e-03 9.343729e-02 -2.692108e-02
      vertex   -4.330127e-03 9.343729e-02 -4.289867e-02
      vertex   -5.000000e-03 9.343729e-02 -4.539867e-02
    endloop
  endfacet
  facet normal 0.000000e+00 1.000000e+00 0.000000e+00
    outer loop
      vertex   7.653669e-03 9.343729e-02 -2.692108e-02
      vertex   2.500000e-03 9.343729e-02 -4.106854e-02
      vertex   -8.076873e-17 9.343729e-02 -2.539867e-02
    endloop
  endfacet
  facet normal 0.000000e+00 1.000000e+00 0.000000e+00
    outer loop
      vertex   -8.076873e-17 9.343729e-02 -2.539867e-02
      vertex   2.500000e-03 9.343729e-02 -4.106854e-02
      vertex   -7.868706e-17 9.343729e-02 -4.039867e-02
    endloop
  endfacet
  facet normal 0.000000e+00 1.000000e+00 0.000000e+00
    outer loop
      vertex   -8.076873e-17 9.343729e-02 -2.539867e-02
      vertex   -7.868706e-17 9.343729e-02 -4.039867e-02
      vertex   -2.500000e-03 9.343729e-02 -4.106854e-02
    endloop
  endfacet
  facet normal 0.000000e+00 1.000000e+00 0.000000e+00
    outer loop
      vertex   1.414214e-02 9.343729e-02 -3.125653e-02
      vertex   1.847759e-02 9.343729e-02 -3.774500e-02
      vertex   2.000000e-02 9.343729e-02 -4.539867e-02
    endloop
  endfacet
  facet normal 0.000000e+00 -1.000000e+00 0.000000e+00
    outer loop
      vertex   -2.000000e-02 8.843729e-02 -1.153987e-01
      vertex   -5.925815e-17 8.843729e-02 -1.803987e-01
      vertex   2.000000e-02 8.843729e-02 -1.153987e-01
    endloop
  endfacet
  facet normal 0.000000e+00 -1.000000e+00 0.000000e+00
    outer loop
      vertex   2.000000e-02 8.843729e-02 -1.153987e-01
      vertex   -5.925815e-17 8.843729e-02 -1.803987e-01
      vertex   2.500000e-03 8.843729e-02 -1.810685e-01
    endloop
  endfacet
  facet normal 0.000000e+00 -1.000000e+00 0.000000e+00
    outer loop
      vertex   2.000000e-02 8.843729e-02 -1.153987e-01
      vertex   2.500000e-03 8.843729e-02 -1.810685e-01
      vertex   4.330127e-03 8.843729e-02 -1.828987e-01
    endloop
  endfacet
  facet normal 0.000000e+00 -1.000000e+00 0.000000e+00
    outer loop
      vertex   -2.000000e-02 8.843729e-02 -1.853987e-01
      vertex   -4.330127e-03 8.843729e-02 -1.828987e-01
      vertex   -2.000000e-02 8.843729e-02 -1.153987e-01
    endloop
  endfacet
  facet normal 0.000000e+00 -1.000000e+00 0.000000e+00
    outer loop
      vertex   -2.000000e-02 8.843729e-02 -1.153987e-01
      vertex   -4.330127e-03 8.843729e-02 -1.828987e-01
      vertex   -2.500000e-03 8.843729e-02 -1.810685e-01
    endloop
  endfacet
  facet normal 0.000000e+00 -1.000000e+00 0.000000e+00
    outer loop
      vertex   -2.000000e-02 8.843729e-02 -1.153987e-01
      vertex   -2.500000e-03 8.843729e-02 -1.810685e-01
      vertex   -5.925815e-17 8.843729e-02 -1.803987e-01
    endloop
  endfacet
  facet normal 0.000000e+00 -1.000000e+00 0.000000e+00
    outer loop
      vertex   -4.330127e-03 8.843729e-02 -1.828987e-01
      vertex   -2.000000e-02 8.843729e-02 -1.853987e-01
      vertex   -5.000000e-03 8.843729e-02 -1.853987e-01
    endloop
  endfacet
  facet normal -0.000000e+00 -1.000000e+00 0.000000e+00
    outer loop
      vertex   -5.000000e-03 8.843729e-02 -1.853987e-01
      vertex   -2.000000e-02 8.843729e-02 -1.853987e-01
      vertex   -1.847759e-02 8.843729e-02 -1.930523e-01
    endloop
  endfacet
  facet normal 0.000000e+00 -1.000000e+00 0.000000e+00
    outer loop
      vertex   -5.000000e-03 8.843729e-02 -1.853987e-01
      vertex   -1.847759e-02 8.843729e-02 -1.930523e-01
      vertex   -1.414214e-02 8.843729e-02 -1.995408e-01
    endloop
  endfacet
  facet normal 0.000000e+00 -1.000000e+00 0.000000e+00
    outer loop
      vertex   -1.414214e-02 8.843729e-02 -1.995408e-01
      vertex   -7.653669e-03 8.843729e-02 -2.038763e-01
      vertex   -5.000000e-03 8.843729e-02 -1.853987e-01
    endloop
  endfacet
  facet normal 0.000000e+00 -1.000000e+00 -0.000000e+00
    outer loop
      vertex   -5.000000e-03 8.843729e-02 -1.853987e-01
      vertex   -7.653669e-03 8.843729e-02 -2.038763e-01
      vertex   -4.330127e-03 8.843729e-02 -1.878987e-01
    endloop
  endfacet
  facet normal 0.000000e+00 -1.000000e+00 -0.000000e+00
    outer loop
      vertex   -4.330127e-03 8.843729e-02 -1.878987e-01
      vertex   -7.653669e-03 8.843729e-02 -2.038763e-01
      vertex   -2.500000e-03 8.843729e-02 -1.897288e-01
    endloop
  endfacet
  facet normal 0.000000e+00 -1.000000e+00 -0.000000e+00
    outer loop
      vertex   -2.500000e-03 8.843729e-02 -1.897288e-01
      vertex   -7.653669e-03 8.843729e-02 -2.038763e-01
      vertex   -5.823800e-17 8.843729e-02 -2.053987e-01
    endloop
  endfacet
  facet normal 0.000000e+00 -1.000000e+00 0.000000e+00
    outer loop
      vertex   -2.500000e-03 8.843729e-02 -1.897288e-01
      vertex   -5.823800e-17 8.843729e-02 -2.053987e-01
      vertex   -5.848270e-17 8.843729e-02 -1.903987e-01
    endloop
  endfacet
  facet normal 0.000000e+00 -1.000000e+00 0.000000e+00
    outer loop
      vertex   -5.848270e-17 8.843729e-02 -1.903987e-01
      vertex   -5.823800e-17 8.843729e-02 -2.053987e-01
      vertex   2.500000e-03 8.843729e-02 -1.897288e-01
    endloop
  endfacet
  facet normal 0.000000e+00 -1.000000e+00 -0.000000e+00
    outer loop
      vertex   2.500000e-03 8.843729e-02 -1.897288e-01
      vertex   -5.823800e-17 8.843729e-02 -2.053987e-01
      vertex   7.653669e-03 8.843729e-02 -2.038763e-01
    endloop
  endfacet
  facet normal 0.000000e+00 -1.000000e+00 0.000000e+00
    outer loop
      vertex   2.500000e-03 8.843729e-02 -1.897288e-01
      vertex   7.653669e-03 8.843729e-02 -2.038763e-01
      vertex   4.330127e-03 8.843729e-02 -1.878987e-01
    endloop
  endfacet
  facet normal 0.000000e+00 -1.000000e+00 0.000000e+00
    outer loop
      vertex   4.330127e-03 8.843729e-02 -1.878987e-01
      vertex   7.653669e-03 8.843729e-02 -2.038763e-01
      vertex   5.000000e-03 8.843729e-02 -1.853987e-01
    endloop
  endfacet
  facet normal 0.000000e+00 -1.000000e+00 0.000000e+00
    outer loop
      vertex   5.000000e-03 8.843729e-02 -1.853987e-01
      vertex   7.653669e-03 8.843729e-02 -2.038763e-01
      vertex   1.414214e-02 8.843729e-02 -1.995408e-01
    endloop
  endfacet
  facet normal 0.000000e+00 -1.000000e+00 0.000000e+00
    outer loop
      vertex   5.000000e-03 8.843729e-02 -1.853987e-01
      vertex   1.414214e-02 8.843729e-02 -1.995408e-01
      vertex   1.847759e-02 8.843729e-02 -1.930523e-01
    endloop
  endfacet
  facet normal 0.000000e+00 -1.000000e+00 0.000000e+00
    outer loop
      vertex   1.847759e-02 8.843729e-02 -1.930523e-01
      vertex   2.000000e-02 8.843729e-02 -1.853987e-01
      vertex   5.000000e-03 8.843729e-02 -1.853987e-01
    endloop
  endfacet
  facet normal 0.000000e+00 -1.000000e+00 0.000000e+00
    outer loop
      vertex   5.000000e-03 8.843729e-02 -1.853987e-01
      vertex   2.000000e-02 8.843729e-02 -1.853987e-01
      vertex   4.330127e-03 8.843729e-02 -1.828987e-01
    endloop
  endfacet
  facet normal 0.000000e+00 -1.000000e+00 0.000000e+00
    outer loop
      vertex   4.330127e-03 8.843729e-02 -1.828987e-01
      vertex   2.000000e-02 8.843729e-02 -1.853987e-01
      vertex   2.000000e-02 8.843729e-02 -1.153987e-01
    endloop
  endfacet
  facet normal 0.000000e+00 -1.000000e+00 0.000000e+00
    outer loop
      vertex   2.500000e-03 5.343729e-02 -4.972879e-02
      vertex   -7.729928e-17 5.343729e-02 -5.039867e-02
      vertex   -5.333941e-17 5.343729e-02 -2.053987e-01
    endloop
  endfacet
  facet normal 0.000000e+00 -1.000000e+00 0.000000e+00
    outer loop
      vertex   -5.333941e-17 5.343729e-02 -2.053987e-01
      vertex   -7.729928e-17 5.343729e-02 -5.039867e-02
      vertex   -2.500000e-03 5.343729e-02 -4.972879e-02
    endloop
  endfacet
  facet normal 0.000000e+00 -1.000000e+00 0.000000e+00
    outer loop
      vertex   -5.333941e-17 5.343729e-02 -2.053987e-01
      vertex   -2.500000e-03 5.343729e-02 -4.972879e-02
      vertex   -7.653669e-03 5.343729e-02 -2.038763e-01
    endloop
  endfacet
  facet normal 0.000000e+00 -1.000000e+00 0.000000e+00
    outer loop
      vertex   -7.653669e-03 5.343729e-02 -2.038763e-01
      vertex   -2.500000e-03 5.343729e-02 -4.972879e-02
      vertex   -4.330127e-03 5.343729e-02 -4.789867e-02
    endloop
  endfacet
  facet normal 0.000000e+00 -1.000000e+00 0.000000e+00
    outer loop
      vertex   -7.653669e-03 5.343729e-02 -2.038763e-01
      vertex   -4.330127e-03 5.343729e-02 -4.789867e-02
      vertex   -1.414214e-02 5.343729e-02 -1.995408e-01
    endloop
  endfacet
  facet normal 0.000000e+00 -1.000000e+00 0.000000e+00
    outer loop
      vertex   -1.414214e-02 5.343729e-02 -1.995408e-01
      vertex   -4.330127e-03 5.343729e-02 -4.789867e-02
      vertex   -2.000000e-02 5.343729e-02 -1.853987e-01
    endloop
  endfacet
  facet normal 0.000000e+00 -1.000000e+00 0.000000e+00
    outer loop
      vertex   -1.414214e-02 5.343729e-02 -1.995408e-01
      vertex   -2.000000e-02 5.343729e-02 -1.853987e-01
      vertex   -1.847759e-02 5.343729e-02 -1.930523e-01
    endloop
  endfacet
  facet normal 0.000000e+00 -1.000000e+00 0.000000e+00
    outer loop
      vertex   -2.000000e-02 5.343729e-02 -1.853987e-01
      vertex   -4.330127e-03 5.343729e-02 -4.789867e-02
      vertex   -2.000000e-02 5.343729e-02 -4.539867e-02
    endloop
  endfacet
  facet normal 0.000000e+00 -1.000000e+00 0.000000e+00
    outer loop
      vertex   -2.000000e-02 5.343729e-02 -4.539867e-02
      vertex   -4.330127e-03 5.343729e-02 -4.789867e-02
      vertex   -5.000000e-03 5.343729e-02 -4.539867e-02
    endloop
  endfacet
  facet normal 0.000000e+00 -1.000000e+00 0.000000e+00
    outer loop
      vertex   -2.000000e-02 5.343729e-02 -4.539867e-02
      vertex   -5.000000e-03 5.343729e-02 -4.539867e-02
      vertex   -1.414214e-02 5.343729e-02 -3.125653e-02
    endloop
  endfacet
  facet normal 0.000000e+00 -1.000000e+00 0.000000e+00
    outer loop
      vertex   -1.414214e-02 5.343729e-02 -3.125653e-02
      vertex   -5.000000e-03 5.343729e-02 -4.539867e-02
      vertex   -7.653669e-03 5.343729e-02 -2.692108e-02
    endloop
  endfacet
  facet normal 0.000000e+00 -1.000000e+00 0.000000e+00
    outer loop
      vertex   -7.653669e-03 5.343729e-02 -2.692108e-02
      vertex   -5.000000e-03 5.343729e-02 -4.539867e-02
      vertex   -4.330127e-03 5.343729e-02 -4.289867e-02
    endloop
  endfacet
  facet normal 0.000000e+00 -1.000000e+00 0.000000e+00
    outer loop
      vertex   -7.653669e-03 5.343729e-02 -2.692108e-02
      vertex   -4.330127e-03 5.343729e-02 -4.289867e-02
      vertex   -2.500000e-03 5.343729e-02 -4.106854e-02
    endloop
  endfacet
  facet normal 0.000000e+00 -1.000000e+00 0.000000e+00
    outer loop
      vertex   -7.653669e-03 5.343729e-02 -2.692108e-02
      vertex   -2.500000e-03 5.343729e-02 -4.106854e-02
      vertex   -8.076873e-17 5.343729e-02 -2.539867e-02
    endloop
  endfacet
  facet normal 0.000000e+00 -1.000000e+00 -0.000000e+00
    outer loop
      vertex   -8.076873e-17 5.343729e-02 -2.539867e-02
      vertex   -2.500000e-03 5.343729e-02 -4.106854e-02
      vertex   -7.868706e-17 5.343729e-02 -4.039867e-02
    endloop
  endfacet
  facet normal 0.000000e+00 -1.000000e+00 0.000000e+00
    outer loop
      vertex   -8.076873e-17 5.343729e-02 -2.539867e-02
      vertex   -7.868706e-17 5.343729e-02 -4.039867e-02
      vertex   2.500000e-03 5.343729e-02 -4.106854e-02
    endloop
  endfacet
  facet normal 0.000000e+00 -1.000000e+00 0.000000e+00
    outer loop
      vertex   -8.076873e-17 5.343729e-02 -2.539867e-02
      vertex   2.500000e-03 5.343729e-02 -4.106854e-02
      vertex   7.653669e-03 5.343729e-02 -2.692108e-02
    endloop
  endfacet
  facet normal 0.000000e+00 -1.000000e+00 0.000000e+00
    outer loop
      vertex   7.653669e-03 5.343729e-02 -2.692108e-02
      vertex   2.500000e-03 5.343729e-02 -4.106854e-02
      vertex   4.330127e-03 5.343729e-02 -4.289867e-02
    endloop
  endfacet
  facet normal 0.000000e+00 -1.000000e+00 0.000000e+00
    outer loop
      vertex   7.653669e-03 5.343729e-02 -2.692108e-02
      vertex   4.330127e-03 5.343729e-02 -4.289867e-02
      vertex   5.000000e-03 5.343729e-02 -4.539867e-02
    endloop
  endfacet
  facet normal 0.000000e+00 -1.000000e+00 0.000000e+00
    outer loop
      vertex   4.330127e-03 5.343729e-02 -4.789867e-02
      vertex   2.000000e-02 5.343729e-02 -4.539867e-02
      vertex   5.000000e-03 5.343729e-02 -4.539867e-02
    endloop
  endfacet
  facet normal 0.000000e+00 -1.000000e+00 0.000000e+00
    outer loop
      vertex   5.000000e-03 5.343729e-02 -4.539867e-02
      vertex   2.000000e-02 5.343729e-02 -4.539867e-02
      vertex   1.414214e-02 5.343729e-02 -3.125653e-02
    endloop
  endfacet
  facet normal 0.000000e+00 -1.000000e+00 0.000000e+00
    outer loop
      vertex   5.000000e-03 5.343729e-02 -4.539867e-02
      vertex   1.414214e-02 5.343729e-02 -3.125653e-02
      vertex   7.653669e-03 5.343729e-02 -2.692108e-02
    endloop
  endfacet
  facet normal 0.000000e+00 -1.000000e+00 0.000000e+00
    outer loop
      vertex   2.500000e-03 5.343729e-02 -4.972879e-02
      vertex   7.653669e-03 5.343729e-02 -2.038763e-01
      vertex   4.330127e-03 5.343729e-02 -4.789867e-02
    endloop
  endfacet
  facet normal 0.000000e+00 -1.000000e+00 0.000000e+00
    outer loop
      vertex   4.330127e-03 5.343729e-02 -4.789867e-02
      vertex   7.653669e-03 5.343729e-02 -2.038763e-01
      vertex   1.414214e-02 5.343729e-02 -1.995408e-01
    endloop
  endfacet
  facet normal 0.000000e+00 -1.000000e+00 0.000000e+00
    outer loop
      vertex   4.330127e-03 5.343729e-02 -4.789867e-02
      vertex   1.414214e-02 5.343729e-02 -1.995408e-01
      vertex   2.000000e-02 5.343729e-02 -1.853987e-01
    endloop
  endfacet
  facet normal 0.000000e+00 -1.000000e+00 0.000000e+00
    outer loop
      vertex   2.000000e-02 5.343729e-02 -1.853987e-01
      vertex   1.414214e-02 5.343729e-02 -1.995408e-01
      vertex   1.847759e-02 5.343729e-02 -1.930523e-01
    endloop
  endfacet
  facet normal -0.000000e+00 -1.000000e+00 0.000000e+00
    outer loop
      vertex   7.653669e-03 5.343729e-02 -2.038763e-01
      vertex   2.500000e-03 5.343729e-02 -4.972879e-02
      vertex   -5.333941e-17 5.343729e-02 -2.053987e-01
    endloop
  endfacet
  facet normal 0.000000e+00 -1.000000e+00 0.000000e+00
    outer loop
      vertex   2.000000e-02 5.343729e-02 -1.853987e-01
      vertex   2.000000e-02 5.343729e-02 -4.539867e-02
      vertex   4.330127e-03 5.343729e-02 -4.789867e-02
    endloop
  endfacet
  facet normal 0.000000e+00 -1.000000e+00 0.000000e+00
    outer loop
      vertex   2.000000e-02 5.343729e-02 -4.539867e-02
      vertex   1.847759e-02 5.343729e-02 -3.774500e-02
      vertex   1.414214e-02 5.343729e-02 -3.125653e-02
    endloop
  endfacet
  facet normal 0.000000e+00 -1.000000e+00 0.000000e+00
    outer loop
      vertex   -1.414214e-02 5.343729e-02 -3.125653e-02
      vertex   -1.847759e-02 5.343729e-02 -3.774500e-02
      vertex   -2.000000e-02 5.343729e-02 -4.539867e-02
    endloop
  endfacet
  facet normal 0.000000e+00 1.000000e+00 0.000000e+00
    outer loop
      vertex   2.000000e-02 5.843729e-02 -1.153987e-01
      vertex   -5.925815e-17 5.843729e-02 -1.803987e-01
      vertex   -2.000000e-02 5.843729e-02 -1.153987e-01
    endloop
  endfacet
  facet normal 0.000000e+00 1.000000e+00 0.000000e+00
    outer loop
      vertex   -2.000000e-02 5.843729e-02 -1.153987e-01
      vertex   -5.925815e-17 5.843729e-02 -1.803987e-01
      vertex   -2.500000e-03 5.843729e-02 -1.810685e-01
    endloop
  endfacet
  facet normal 0.000000e+00 1.000000e+00 0.000000e+00
    outer loop
      vertex   -2.000000e-02 5.843729e-02 -1.153987e-01
      vertex   -2.500000e-03 5.843729e-02 -1.810685e-01
      vertex   -4.330127e-03 5.843729e-02 -1.828987e-01
    endloop
  endfacet
  facet normal 0.000000e+00 1.000000e+00 0.000000e+00
    outer loop
      vertex   2.000000e-02 5.843729e-02 -1.853987e-01
      vertex   4.330127e-03 5.843729e-02 -1.828987e-01
      vertex   2.000000e-02 5.843729e-02 -1.153987e-01
    endloop
  endfacet
  facet normal 0.000000e+00 1.000000e+00 0.000000e+00
    outer loop
      vertex   2.000000e-02 5.843729e-02 -1.153987e-01
      vertex   4.330127e-03 5.843729e-02 -1.828987e-01
      vertex   2.500000e-03 5.843729e-02 -1.810685e-01
    endloop
  endfacet
  facet normal 0.000000e+00 1.000000e+00 0.000000e+00
    outer loop
      vertex   2.000000e-02 5.843729e-02 -1.153987e-01
      vertex   2.500000e-03 5.843729e-02 -1.810685e-01
      vertex   -5.925815e-17 5.843729e-02 -1.803987e-01
    endloop
  endfacet
  facet normal 0.000000e+00 1.000000e+00 0.000000e+00
    outer loop
      vertex   4.330127e-03 5.843729e-02 -1.828987e-01
      vertex   2.000000e-02 5.843729e-02 -1.853987e-01
      vertex   5.000000e-03 5.843729e-02 -1.853987e-01
    endloop
  endfacet
  facet normal -0.000000e+00 1.000000e+00 0.000000e+00
    outer loop
      vertex   5.000000e-03 5.843729e-02 -1.853987e-01
      vertex   2.000000e-02 5.843729e-02 -1.853987e-01
      vertex   1.847759e-02 5.843729e-02 -1.930523e-01
    endloop
  endfacet
  facet normal 0.000000e+00 1.000000e+00 0.000000e+00
    outer loop
      vertex   5.000000e-03 5.843729e-02 -1.853987e-01
      vertex   1.847759e-02 5.843729e-02 -1.930523e-01
      vertex   1.414214e-02 5.843729e-02 -1.995408e-01
    endloop
  endfacet
  facet normal 0.000000e+00 1.000000e+00 0.000000e+00
    outer loop
      vertex   1.414214e-02 5.843729e-02 -1.995408e-01
      vertex   7.653669e-03 5.843729e-02 -2.038763e-01
      vertex   5.000000e-03 5.843729e-02 -1.853987e-01
    endloop
  endfacet
  facet normal 0.000000e+00 1.000000e+00 0.000000e+00
    outer loop
      vertex   5.000000e-03 5.843729e-02 -1.853987e-01
      vertex   7.653669e-03 5.843729e-02 -2.038763e-01
      vertex   4.330127e-03 5.843729e-02 -1.878987e-01
    endloop
  endfacet
  facet normal 0.000000e+00 1.000000e+00 0.000000e+00
    outer loop
      vertex   4.330127e-03 5.843729e-02 -1.878987e-01
      vertex   7.653669e-03 5.843729e-02 -2.038763e-01
      vertex   2.500000e-03 5.843729e-02 -1.897288e-01
    endloop
  endfacet
  facet normal 0.000000e+00 1.000000e+00 0.000000e+00
    outer loop
      vertex   2.500000e-03 5.843729e-02 -1.897288e-01
      vertex   7.653669e-03 5.843729e-02 -2.038763e-01
      vertex   -5.333941e-17 5.843729e-02 -2.053987e-01
    endloop
  endfacet
  facet normal 0.000000e+00 1.000000e+00 0.000000e+00
    outer loop
      vertex   2.500000e-03 5.843729e-02 -1.897288e-01
      vertex   -5.333941e-17 5.843729e-02 -2.053987e-01
      vertex   -5.725805e-17 5.843729e-02 -1.903987e-01
    endloop
  endfacet
  facet normal 0.000000e+00 1.000000e+00 0.000000e+00
    outer loop
      vertex   -5.725805e-17 5.843729e-02 -1.903987e-01
      vertex   -5.333941e-17 5.843729e-02 -2.053987e-01
      vertex   -2.500000e-03 5.843729e-02 -1.897288e-01
    endloop
  endfacet
  facet normal 0.000000e+00 1.000000e+00 0.000000e+00
    outer loop
      vertex   -2.500000e-03 5.843729e-02 -1.897288e-01
      vertex   -5.333941e-17 5.843729e-02 -2.053987e-01
      vertex   -7.653669e-03 5.843729e-02 -2.038763e-01
    endloop
  endfacet
  facet normal 0.000000e+00 1.000000e+00 0.000000e+00
    outer loop
      vertex   -2.500000e-03 5.843729e-02 -1.897288e-01
      vertex   -7.653669e-03 5.843729e-02 -2.038763e-01
      vertex   -4.330127e-03 5.843729e-02 -1.878987e-01
    endloop
  endfacet
  facet normal 0.000000e+00 1.000000e+00 0.000000e+00
    outer loop
      vertex   -4.330127e-03 5.843729e-02 -1.878987e-01
      vertex   -7.653669e-03 5.843729e-02 -2.038763e-01
      vertex   -5.000000e-03 5.843729e-02 -1.853987e-01
    endloop
  endfacet
  facet normal 0.000000e+00 1.000000e+00 0.000000e+00
    outer loop
      vertex   -5.000000e-03 5.843729e-02 -1.853987e-01
      vertex   -7.653669e-03 5.843729e-02 -2.038763e-01
      vertex   -1.414214e-02 5.843729e-02 -1.995408e-01
    endloop
  endfacet
  facet normal 0.000000e+00 1.000000e+00 0.000000e+00
    outer loop
      vertex   -5.000000e-03 5.843729e-02 -1.853987e-01
      vertex   -1.414214e-02 5.843729e-02 -1.995408e-01
      vertex   -1.847759e-02 5.843729e-02 -1.930523e-01
    endloop
  endfacet
  facet normal 0.000000e+00 1.000000e+00 -0.000000e+00
    outer loop
      vertex   -1.847759e-02 5.843729e-02 -1.930523e-01
      vertex   -2.000000e-02 5.843729e-02 -1.853987e-01
      vertex   -5.000000e-03 5.843729e-02 -1.853987e-01
    endloop
  endfacet
  facet normal 0.000000e+00 1.000000e+00 -0.000000e+00
    outer loop
      vertex   -5.000000e-03 5.843729e-02 -1.853987e-01
      vertex   -2.000000e-02 5.843729e-02 -1.853987e-01
      vertex   -4.330127e-03 5.843729e-02 -1.828987e-01
    endloop
  endfacet
  facet normal 0.000000e+00 1.000000e+00 0.000000e+00
    outer loop
      vertex   -4.330127e-03 5.843729e-02 -1.828987e-01
      vertex   -2.000000e-02 5.843729e-02 -1.853987e-01
      vertex   -2.000000e-02 5.843729e-02 -1.153987e-01
    endloop
  endfacet
  facet normal 0.000000e+00 0.000000e+00 1.000000e+00
    outer loop
      vertex   -2.000000e-02 5.843729e-02 -1.052971e-01
      vertex   2.000000e-02 5.843729e-02 -1.052971e-01
      vertex   -2.000000e-02 8.843729e-02 -1.052971e-01
    endloop
  endfacet
  facet normal -0.000000e+00 0.000000e+00 1.000000e+00
    outer loop
      vertex   -2.000000e-02 8.843729e-02 -1.052971e-01
      vertex   2.000000e-02 5.843729e-02 -1.052971e-01
      vertex   2.000000e-02 8.843729e-02 -1.052971e-01
    endloop
  endfacet
  facet normal 0.000000e+00 0.000000e+00 -1.000000e+00
    outer loop
      vertex   2.000000e-02 5.843729e-02 -1.153987e-01
      vertex   -2.000000e-02 5.843729e-02 -1.153987e-01
      vertex   2.000000e-02 8.843729e-02 -1.153987e-01
    endloop
  endfacet
  facet normal -0.000000e+00 0.000000e+00 -1.000000e+00
    outer loop
      vertex   2.000000e-02 8.843729e-02 -1.153987e-01
      vertex   -2.000000e-02 5.843729e-02 -1.153987e-01
      vertex   -2.000000e-02 8.843729e-02 -1.153987e-01
    endloop
  endfacet
  facet normal 0.000000e+00 -1.000000e+00 -0.000000e+00
    outer loop
      vertex   -2.500000e-03 8.843729e-02 -4.972879e-02
      vertex   -2.000000e-02 8.843729e-02 -1.052971e-01
      vertex   -7.791160e-17 8.843729e-02 -5.039867e-02
    endloop
  endfacet
  facet normal 0.000000e+00 -1.000000e+00 -0.000000e+00
    outer loop
      vertex   -7.791160e-17 8.843729e-02 -5.039867e-02
      vertex   -2.000000e-02 8.843729e-02 -1.052971e-01
      vertex   2.000000e-02 8.843729e-02 -1.052971e-01
    endloop
  endfacet
  facet normal 0.000000e+00 -1.000000e+00 0.000000e+00
    outer loop
      vertex   -7.791160e-17 8.843729e-02 -5.039867e-02
      vertex   2.000000e-02 8.843729e-02 -1.052971e-01
      vertex   2.500000e-03 8.843729e-02 -4.972879e-02
    endloop
  endfacet
  facet normal 0.000000e+00 -1.000000e+00 0.000000e+00
    outer loop
      vertex   2.500000e-03 8.843729e-02 -4.972879e-02
      vertex   2.000000e-02 8.843729e-02 -1.052971e-01
      vertex   4.330127e-03 8.843729e-02 -4.789867e-02
    endloop
  endfacet
  facet normal 0.000000e+00 -1.000000e+00 0.000000e+00
    outer loop
      vertex   4.330127e-03 8.843729e-02 -4.789867e-02
      vertex   2.000000e-02 8.843729e-02 -1.052971e-01
      vertex   2.000000e-02 8.843729e-02 -4.539867e-02
    endloop
  endfacet
  facet normal 0.000000e+00 -1.000000e+00 0.000000e+00
    outer loop
      vertex   4.330127e-03 8.843729e-02 -4.789867e-02
      vertex   2.000000e-02 8.843729e-02 -4.539867e-02
      vertex   5.000000e-03 8.843729e-02 -4.539867e-02
    endloop
  endfacet
  facet normal 0.000000e+00 -1.000000e+00 0.000000e+00
    outer loop
      vertex   5.000000e-03 8.843729e-02 -4.539867e-02
      vertex   2.000000e-02 8.843729e-02 -4.539867e-02
      vertex   1.847759e-02 8.843729e-02 -3.774500e-02
    endloop
  endfacet
  facet normal 0.000000e+00 -1.000000e+00 0.000000e+00
    outer loop
      vertex   5.000000e-03 8.843729e-02 -4.539867e-02
      vertex   1.847759e-02 8.843729e-02 -3.774500e-02
      vertex   1.414214e-02 8.843729e-02 -3.125653e-02
    endloop
  endfacet
  facet normal -0.000000e+00 -1.000000e+00 0.000000e+00
    outer loop
      vertex   -2.500000e-03 8.843729e-02 -4.972879e-02
      vertex   -4.330127e-03 8.843729e-02 -4.789867e-02
      vertex   -2.000000e-02 8.843729e-02 -1.052971e-01
    endloop
  endfacet
  facet normal 0.000000e+00 -1.000000e+00 0.000000e+00
    outer loop
      vertex   -2.000000e-02 8.843729e-02 -1.052971e-01
      vertex   -4.330127e-03 8.843729e-02 -4.789867e-02
      vertex   -2.000000e-02 8.843729e-02 -4.539867e-02
    endloop
  endfacet
  facet normal 0.000000e+00 -1.000000e+00 0.000000e+00
    outer loop
      vertex   -2.000000e-02 8.843729e-02 -4.539867e-02
      vertex   -4.330127e-03 8.843729e-02 -4.789867e-02
      vertex   -5.000000e-03 8.843729e-02 -4.539867e-02
    endloop
  endfacet
  facet normal 0.000000e+00 -1.000000e+00 0.000000e+00
    outer loop
      vertex   -2.000000e-02 8.843729e-02 -4.539867e-02
      vertex   -5.000000e-03 8.843729e-02 -4.539867e-02
      vertex   -1.847759e-02 8.843729e-02 -3.774500e-02
    endloop
  endfacet
  facet normal 0.000000e+00 -1.000000e+00 0.000000e+00
    outer loop
      vertex   -1.847759e-02 8.843729e-02 -3.774500e-02
      vertex   -5.000000e-03 8.843729e-02 -4.539867e-02
      vertex   -1.414214e-02 8.843729e-02 -3.125653e-02
    endloop
  endfacet
  facet normal 0.000000e+00 -1.000000e+00 0.000000e+00
    outer loop
      vertex   -1.414214e-02 8.843729e-02 -3.125653e-02
      vertex   -5.000000e-03 8.843729e-02 -4.539867e-02
      vertex   -4.330127e-03 8.843729e-02 -4.289867e-02
    endloop
  endfacet
  facet normal 0.000000e+00 -1.000000e+00 0.000000e+00
    outer loop
      vertex   -1.414214e-02 8.843729e-02 -3.125653e-02
      vertex   -4.330127e-03 8.843729e-02 -4.289867e-02
      vertex   -7.653669e-03 8.843729e-02 -2.692108e-02
    endloop
  endfacet
  facet normal 0.000000e+00 -1.000000e+00 0.000000e+00
    outer loop
      vertex   -7.653669e-03 8.843729e-02 -2.692108e-02
      vertex   -4.330127e-03 8.843729e-02 -4.289867e-02
      vertex   -2.500000e-03 8.843729e-02 -4.106854e-02
    endloop
  endfacet
  facet normal 0.000000e+00 -1.000000e+00 0.000000e+00
    outer loop
      vertex   -7.653669e-03 8.843729e-02 -2.692108e-02
      vertex   -2.500000e-03 8.843729e-02 -4.106854e-02
      vertex   -8.076873e-17 8.843729e-02 -2.539867e-02
    endloop
  endfacet
  facet normal 0.000000e+00 -1.000000e+00 -0.000000e+00
    outer loop
      vertex   -8.076873e-17 8.843729e-02 -2.539867e-02
      vertex   -2.500000e-03 8.843729e-02 -4.106854e-02
      vertex   -7.868706e-17 8.843729e-02 -4.039867e-02
    endloop
  endfacet
  facet normal 0.000000e+00 -1.000000e+00 0.000000e+00
    outer loop
      vertex   -8.076873e-17 8.843729e-02 -2.539867e-02
      vertex   -7.868706e-17 8.843729e-02 -4.039867e-02
      vertex   2.500000e-03 8.843729e-02 -4.106854e-02
    endloop
  endfacet
  facet normal 0.000000e+00 -1.000000e+00 0.000000e+00
    outer loop
      vertex   -8.076873e-17 8.843729e-02 -2.539867e-02
      vertex   2.500000e-03 8.843729e-02 -4.106854e-02
      vertex   7.653669e-03 8.843729e-02 -2.692108e-02
    endloop
  endfacet
  facet normal 0.000000e+00 -1.000000e+00 0.000000e+00
    outer loop
      vertex   7.653669e-03 8.843729e-02 -2.692108e-02
      vertex   2.500000e-03 8.843729e-02 -4.106854e-02
      vertex   4.330127e-03 8.843729e-02 -4.289867e-02
    endloop
  endfacet
  facet normal 0.000000e+00 -1.000000e+00 -0.000000e+00
    outer loop
      vertex   7.653669e-03 8.843729e-02 -2.692108e-02
      vertex   4.330127e-03 8.843729e-02 -4.289867e-02
      vertex   1.414214e-02 8.843729e-02 -3.125653e-02
    endloop
  endfacet
  facet normal 0.000000e+00 -1.000000e+00 0.000000e+00
    outer loop
      vertex   1.414214e-02 8.843729e-02 -3.125653e-02
      vertex   4.330127e-03 8.843729e-02 -4.289867e-02
      vertex   5.000000e-03 8.843729e-02 -4.539867e-02
    endloop
  endfacet
  facet normal 2.588190e-01 8.979589e-17 9.659258e-01
    outer loop
      vertex   -2.500000e-03 9.343729e-02 -4.972879e-02
      vertex   -2.500000e-03 8.843729e-02 -4.972879e-02
      vertex   -7.729928e-17 9.343729e-02 -5.039867e-02
    endloop
  endfacet
  facet normal 2.588190e-01 -3.169619e-17 9.659258e-01
    outer loop
      vertex   -7.729928e-17 9.343729e-02 -5.039867e-02
      vertex   -2.500000e-03 8.843729e-02 -4.972879e-02
      vertex   -7.791160e-17 8.843729e-02 -5.039867e-02
    endloop
  endfacet
  facet normal -2.588190e-01 3.169619e-17 9.659258e-01
    outer loop
      vertex   -7.729928e-17 9.343729e-02 -5.039867e-02
      vertex   -7.791160e-17 8.843729e-02 -5.039867e-02
      vertex   2.500000e-03 9.343729e-02 -4.972879e-02
    endloop
  endfacet
  facet normal -2.588190e-01 -8.979589e-17 9.659258e-01
    outer loop
      vertex   2.500000e-03 9.343729e-02 -4.972879e-02
      vertex   -7.791160e-17 8.843729e-02 -5.039867e-02
      vertex   2.500000e-03 8.843729e-02 -4.972879e-02
    endloop
  endfacet
  facet normal -7.071068e-01 -2.453269e-16 7.071068e-01
    outer loop
      vertex   2.500000e-03 9.343729e-02 -4.972879e-02
      vertex   2.500000e-03 8.843729e-02 -4.972879e-02
      vertex   4.330127e-03 9.343729e-02 -4.789867e-02
    endloop
  endfacet
  facet normal -7.071068e-01 -3.679904e-16 7.071068e-01
    outer loop
      vertex   4.330127e-03 9.343729e-02 -4.789867e-02
      vertex   2.500000e-03 8.843729e-02 -4.972879e-02
      vertex   4.330127e-03 8.843729e-02 -4.789867e-02
    endloop
  endfacet
  facet normal -9.659258e-01 -5.026843e-16 2.588190e-01
    outer loop
      vertex   4.330127e-03 9.343729e-02 -4.789867e-02
      vertex   4.330127e-03 8.843729e-02 -4.789867e-02
      vertex   5.000000e-03 9.343729e-02 -4.539867e-02
    endloop
  endfacet
  facet normal -9.659258e-01 0.000000e+00 2.588190e-01
    outer loop
      vertex   5.000000e-03 9.343729e-02 -4.539867e-02
      vertex   4.330127e-03 8.843729e-02 -4.789867e-02
      vertex   5.000000e-03 8.843729e-02 -4.539867e-02
    endloop
  endfacet
  facet normal -9.659258e-01 -0.000000e+00 -2.588190e-01
    outer loop
      vertex   5.000000e-03 9.343729e-02 -4.539867e-02
      vertex   5.000000e-03 8.843729e-02 -4.539867e-02
      vertex   4.330127e-03 9.343729e-02 -4.289867e-02
    endloop
  endfacet
  facet normal -9.659258e-01 1.675614e-16 -2.588190e-01
    outer loop
      vertex   4.330127e-03 9.343729e-02 -4.289867e-02
      vertex   5.000000e-03 8.843729e-02 -4.539867e-02
      vertex   4.330127e-03 8.843729e-02 -4.289867e-02
    endloop
  endfacet
  facet normal -7.071068e-01 1.226635e-16 -7.071068e-01
    outer loop
      vertex   4.330127e-03 9.343729e-02 -4.289867e-02
      vertex   4.330127e-03 8.843729e-02 -4.289867e-02
      vertex   2.500000e-03 9.343729e-02 -4.106854e-02
    endloop
  endfacet
  facet normal -7.071068e-01 2.453269e-16 -7.071068e-01
    outer loop
      vertex   2.500000e-03 9.343729e-02 -4.106854e-02
      vertex   4.330127e-03 8.843729e-02 -4.289867e-02
      vertex   2.500000e-03 8.843729e-02 -4.106854e-02
    endloop
  endfacet
  facet normal -2.588190e-01 8.979589e-17 -9.659258e-01
    outer loop
      vertex   2.500000e-03 9.343729e-02 -4.106854e-02
      vertex   2.500000e-03 8.843729e-02 -4.106854e-02
      vertex   -7.868706e-17 9.343729e-02 -4.039867e-02
    endloop
  endfacet
  facet normal -2.588190e-01 -0.000000e+00 -9.659258e-01
    outer loop
      vertex   -7.868706e-17 9.343729e-02 -4.039867e-02
      vertex   2.500000e-03 8.843729e-02 -4.106854e-02
      vertex   -7.868706e-17 8.843729e-02 -4.039867e-02
    endloop
  endfacet
  facet normal 2.588190e-01 0.000000e+00 -9.659258e-01
    outer loop
      vertex   -7.868706e-17 9.343729e-02 -4.039867e-02
      vertex   -7.868706e-17 8.843729e-02 -4.039867e-02
      vertex   -2.500000e-03 9.343729e-02 -4.106854e-02
    endloop
  endfacet
  facet normal 2.588190e-01 -1.122449e-16 -9.659258e-01
    outer loop
      vertex   -2.500000e-03 9.343729e-02 -4.106854e-02
      vertex   -7.868706e-17 8.843729e-02 -4.039867e-02
      vertex   -2.500000e-03 8.843729e-02 -4.106854e-02
    endloop
  endfacet
  facet normal 7.071068e-01 -3.066587e-16 -7.071068e-01
    outer loop
      vertex   -2.500000e-03 9.343729e-02 -4.106854e-02
      vertex   -2.500000e-03 8.843729e-02 -4.106854e-02
      vertex   -4.330127e-03 9.343729e-02 -4.289867e-02
    endloop
  endfacet
  facet normal 7.071068e-01 -2.453269e-16 -7.071068e-01
    outer loop
      vertex   -4.330127e-03 9.343729e-02 -4.289867e-02
      vertex   -2.500000e-03 8.843729e-02 -4.106854e-02
      vertex   -4.330127e-03 8.843729e-02 -4.289867e-02
    endloop
  endfacet
  facet normal 9.659258e-01 -3.351228e-16 -2.588190e-01
    outer loop
      vertex   -4.330127e-03 9.343729e-02 -4.289867e-02
      vertex   -4.330127e-03 8.843729e-02 -4.289867e-02
      vertex   -5.000000e-03 9.343729e-02 -4.539867e-02
    endloop
  endfacet
  facet normal 9.659258e-01 0.000000e+00 -2.588190e-01
    outer loop
      vertex   -5.000000e-03 9.343729e-02 -4.539867e-02
      vertex   -4.330127e-03 8.843729e-02 -4.289867e-02
      vertex   -5.000000e-03 8.843729e-02 -4.539867e-02
    endloop
  endfacet
  facet normal 9.659258e-01 0.000000e+00 2.588190e-01
    outer loop
      vertex   -5.000000e-03 9.343729e-02 -4.539867e-02
      vertex   -5.000000e-03 8.843729e-02 -4.539867e-02
      vertex   -4.330127e-03 9.343729e-02 -4.789867e-02
    endloop
  endfacet
  facet normal 9.659258e-01 5.026843e-16 2.588190e-01
    outer loop
      vertex   -4.330127e-03 9.343729e-02 -4.789867e-02
      vertex   -5.000000e-03 8.843729e-02 -4.539867e-02
      vertex   -4.330127e-03 8.843729e-02 -4.789867e-02
    endloop
  endfacet
  facet normal 7.071068e-01 3.679904e-16 7.071068e-01
    outer loop
      vertex   -4.330127e-03 9.343729e-02 -4.789867e-02
      vertex   -4.330127e-03 8.843729e-02 -4.789867e-02
      vertex   -2.500000e-03 9.343729e-02 -4.972879e-02
    endloop
  endfacet
  facet normal 7.071068e-01 2.453269e-16 7.071068e-01
    outer loop
      vertex   -2.500000e-03 9.343729e-02 -4.972879e-02
      vertex   -4.330127e-03 8.843729e-02 -4.789867e-02
      vertex   -2.500000e-03 8.843729e-02 -4.972879e-02
    endloop
  endfacet
  facet normal -9.807853e-01 0.000000e+00 1.950903e-01
    outer loop
      vertex   -2.000000e-02 9.343729e-02 -4.539867e-02
      vertex   -2.000000e-02 8.843729e-02 -4.539867e-02
      vertex   -1.847759e-02 9.343729e-02 -3.774500e-02
    endloop
  endfacet
  facet normal -9.807853e-01 0.000000e+00 1.950903e-01
    outer loop
      vertex   -1.847759e-02 9.343729e-02 -3.774500e-02
      vertex   -2.000000e-02 8.843729e-02 -4.539867e-02
      vertex   -1.847759e-02 8.843729e-02 -3.774500e-02
    endloop
  endfacet
  facet normal -8.314696e-01 0.000000e+00 5.555702e-01
    outer loop
      vertex   -1.847759e-02 9.343729e-02 -3.774500e-02
      vertex   -1.847759e-02 8.843729e-02 -3.774500e-02
      vertex   -1.414214e-02 9.343729e-02 -3.125653e-02
    endloop
  endfacet
  facet normal -8.314696e-01 0.000000e+00 5.555702e-01
    outer loop
      vertex   -1.414214e-02 9.343729e-02 -3.125653e-02
      vertex   -1.847759e-02 8.843729e-02 -3.774500e-02
      vertex   -1.414214e-02 8.843729e-02 -3.125653e-02
    endloop
  endfacet
  facet normal -5.555702e-01 0.000000e+00 8.314696e-01
    outer loop
      vertex   -1.414214e-02 9.343729e-02 -3.125653e-02
      vertex   -1.414214e-02 8.843729e-02 -3.125653e-02
      vertex   -7.653669e-03 9.343729e-02 -2.692108e-02
    endloop
  endfacet
  facet normal -5.555702e-01 0.000000e+00 8.314696e-01
    outer loop
      vertex   -7.653669e-03 9.343729e-02 -2.692108e-02
      vertex   -1.414214e-02 8.843729e-02 -3.125653e-02
      vertex   -7.653669e-03 8.843729e-02 -2.692108e-02
    endloop
  endfacet
  facet normal -1.950903e-01 0.000000e+00 9.807853e-01
    outer loop
      vertex   -7.653669e-03 9.343729e-02 -2.692108e-02
      vertex   -7.653669e-03 8.843729e-02 -2.692108e-02
      vertex   -8.076873e-17 9.343729e-02 -2.539867e-02
    endloop
  endfacet
  facet normal -1.950903e-01 0.000000e+00 9.807853e-01
    outer loop
      vertex   -8.076873e-17 9.343729e-02 -2.539867e-02
      vertex   -7.653669e-03 8.843729e-02 -2.692108e-02
      vertex   -8.076873e-17 8.843729e-02 -2.539867e-02
    endloop
  endfacet
  facet normal 1.950903e-01 0.000000e+00 9.807853e-01
    outer loop
      vertex   -8.076873e-17 9.343729e-02 -2.539867e-02
      vertex   -8.076873e-17 8.843729e-02 -2.539867e-02
      vertex   7.653669e-03 9.343729e-02 -2.692108e-02
    endloop
  endfacet
  facet normal 1.950903e-01 0.000000e+00 9.807853e-01
    outer loop
      vertex   7.653669e-03 9.343729e-02 -2.692108e-02
      vertex   -8.076873e-17 8.843729e-02 -2.539867e-02
      vertex   7.653669e-03 8.843729e-02 -2.692108e-02
    endloop
  endfacet
  facet normal 5.555702e-01 0.000000e+00 8.314696e-01
    outer loop
      vertex   7.653669e-03 9.343729e-02 -2.692108e-02
      vertex   7.653669e-03 8.843729e-02 -2.692108e-02
      vertex   1.414214e-02 9.343729e-02 -3.125653e-02
    endloop
  endfacet
  facet normal 5.555702e-01 0.000000e+00 8.314696e-01
    outer loop
      vertex   1.414214e-02 9.343729e-02 -3.125653e-02
      vertex   7.653669e-03 8.843729e-02 -2.692108e-02
      vertex   1.414214e-02 8.843729e-02 -3.125653e-02
    endloop
  endfacet
  facet normal 8.314696e-01 0.000000e+00 5.555702e-01
    outer loop
      vertex   1.414214e-02 9.343729e-02 -3.125653e-02
      vertex   1.414214e-02 8.843729e-02 -3.125653e-02
      vertex   1.847759e-02 9.343729e-02 -3.774500e-02
    endloop
  endfacet
  facet normal 8.314696e-01 0.000000e+00 5.555702e-01
    outer loop
      vertex   1.847759e-02 9.343729e-02 -3.774500e-02
      vertex   1.414214e-02 8.843729e-02 -3.125653e-02
      vertex   1.847759e-02 8.843729e-02 -3.774500e-02
    endloop
  endfacet
  facet normal 9.807853e-01 0.000000e+00 1.950903e-01
    outer loop
      vertex   1.847759e-02 9.343729e-02 -3.774500e-02
      vertex   1.847759e-02 8.843729e-02 -3.774500e-02
      vertex   2.000000e-02 9.343729e-02 -4.539867e-02
    endloop
  endfacet
  facet normal 9.807853e-01 0.000000e+00 1.950903e-01
    outer loop
      vertex   2.000000e-02 9.343729e-02 -4.539867e-02
      vertex   1.847759e-02 8.843729e-02 -3.774500e-02
      vertex   2.000000e-02 8.843729e-02 -4.539867e-02
    endloop
  endfacet
  facet normal 9.807853e-01 0.000000e+00 -1.950903e-01
    outer loop
      vertex   2.000000e-02 9.343729e-02 -1.853987e-01
      vertex   2.000000e-02 8.843729e-02 -1.853987e-01
      vertex   1.847759e-02 9.343729e-02 -1.930523e-01
    endloop
  endfacet
  facet normal 9.807853e-01 0.000000e+00 -1.950903e-01
    outer loop
      vertex   1.847759e-02 9.343729e-02 -1.930523e-01
      vertex   2.000000e-02 8.843729e-02 -1.853987e-01
      vertex   1.847759e-02 8.843729e-02 -1.930523e-01
    endloop
  endfacet
  facet normal 8.314696e-01 0.000000e+00 -5.555702e-01
    outer loop
      vertex   1.847759e-02 9.343729e-02 -1.930523e-01
      vertex   1.847759e-02 8.843729e-02 -1.930523e-01
      vertex   1.414214e-02 9.343729e-02 -1.995408e-01
    endloop
  endfacet
  facet normal 8.314696e-01 0.000000e+00 -5.555702e-01
    outer loop
      vertex   1.414214e-02 9.343729e-02 -1.995408e-01
      vertex   1.847759e-02 8.843729e-02 -1.930523e-01
      vertex   1.414214e-02 8.843729e-02 -1.995408e-01
    endloop
  endfacet
  facet normal 5.555702e-01 0.000000e+00 -8.314696e-01
    outer loop
      vertex   1.414214e-02 9.343729e-02 -1.995408e-01
      vertex   1.414214e-02 8.843729e-02 -1.995408e-01
      vertex   7.653669e-03 9.343729e-02 -2.038763e-01
    endloop
  endfacet
  facet normal 5.555702e-01 0.000000e+00 -8.314696e-01
    outer loop
      vertex   7.653669e-03 9.343729e-02 -2.038763e-01
      vertex   1.414214e-02 8.843729e-02 -1.995408e-01
      vertex   7.653669e-03 8.843729e-02 -2.038763e-01
    endloop
  endfacet
  facet normal 1.950903e-01 0.000000e+00 -9.807853e-01
    outer loop
      vertex   7.653669e-03 9.343729e-02 -2.038763e-01
      vertex   7.653669e-03 8.843729e-02 -2.038763e-01
      vertex   -5.823800e-17 9.343729e-02 -2.053987e-01
    endloop
  endfacet
  facet normal 1.950903e-01 0.000000e+00 -9.807853e-01
    outer loop
      vertex   -5.823800e-17 9.343729e-02 -2.053987e-01
      vertex   7.653669e-03 8.843729e-02 -2.038763e-01
      vertex   -5.823800e-17 8.843729e-02 -2.053987e-01
    endloop
  endfacet
  facet normal -1.950903e-01 -0.000000e+00 -9.807853e-01
    outer loop
      vertex   -5.823800e-17 9.343729e-02 -2.053987e-01
      vertex   -5.823800e-17 8.843729e-02 -2.053987e-01
      vertex   -7.653669e-03 9.343729e-02 -2.038763e-01
    endloop
  endfacet
  facet normal -1.950903e-01 -0.000000e+00 -9.807853e-01
    outer loop
      vertex   -7.653669e-03 9.343729e-02 -2.038763e-01
      vertex   -5.823800e-17 8.843729e-02 -2.053987e-01
      vertex   -7.653669e-03 8.843729e-02 -2.038763e-01
    endloop
  endfacet
  facet normal -5.555702e-01 -0.000000e+00 -8.314696e-01
    outer loop
      vertex   -7.653669e-03 9.343729e-02 -2.038763e-01
      vertex   -7.653669e-03 8.843729e-02 -2.038763e-01
      vertex   -1.414214e-02 9.343729e-02 -1.995408e-01
    endloop
  endfacet
  facet normal -5.555702e-01 -0.000000e+00 -8.314696e-01
    outer loop
      vertex   -1.414214e-02 9.343729e-02 -1.995408e-01
      vertex   -7.653669e-03 8.843729e-02 -2.038763e-01
      vertex   -1.414214e-02 8.843729e-02 -1.995408e-01
    endloop
  endfacet
  facet normal -8.314696e-01 -0.000000e+00 -5.555702e-01
    outer loop
      vertex   -1.414214e-02 9.343729e-02 -1.995408e-01
      vertex   -1.414214e-02 8.843729e-02 -1.995408e-01
      vertex   -1.847759e-02 9.343729e-02 -1.930523e-01
    endloop
  endfacet
  facet normal -8.314696e-01 -0.000000e+00 -5.555702e-01
    outer loop
      vertex   -1.847759e-02 9.343729e-02 -1.930523e-01
      vertex   -1.414214e-02 8.843729e-02 -1.995408e-01
      vertex   -1.847759e-02 8.843729e-02 -1.930523e-01
    endloop
  endfacet
  facet normal -9.807853e-01 -0.000000e+00 -1.950903e-01
    outer loop
      vertex   -1.847759e-02 9.343729e-02 -1.930523e-01
      vertex   -1.847759e-02 8.843729e-02 -1.930523e-01
      vertex   -2.000000e-02 9.343729e-02 -1.853987e-01
    endloop
  endfacet
  facet normal -9.807853e-01 -0.000000e+00 -1.950903e-01
    outer loop
      vertex   -2.000000e-02 9.343729e-02 -1.853987e-01
      vertex   -1.847759e-02 8.843729e-02 -1.930523e-01
      vertex   -2.000000e-02 8.843729e-02 -1.853987e-01
    endloop
  endfacet
  facet normal 0.000000e+00 1.000000e+00 0.000000e+00
    outer loop
      vertex   -2.000000e-02 5.843729e-02 -1.052971e-01
      vertex   -7.668695e-17 5.843729e-02 -5.039867e-02
      vertex   2.000000e-02 5.843729e-02 -1.052971e-01
    endloop
  endfacet
  facet normal 0.000000e+00 1.000000e+00 0.000000e+00
    outer loop
      vertex   2.000000e-02 5.843729e-02 -1.052971e-01
      vertex   -7.668695e-17 5.843729e-02 -5.039867e-02
      vertex   2.500000e-03 5.843729e-02 -4.972879e-02
    endloop
  endfacet
  facet normal 0.000000e+00 1.000000e+00 0.000000e+00
    outer loop
      vertex   2.000000e-02 5.843729e-02 -1.052971e-01
      vertex   2.500000e-03 5.843729e-02 -4.972879e-02
      vertex   4.330127e-03 5.843729e-02 -4.789867e-02
    endloop
  endfacet
  facet normal 0.000000e+00 1.000000e+00 0.000000e+00
    outer loop
      vertex   -2.000000e-02 5.843729e-02 -4.539867e-02
      vertex   -4.330127e-03 5.843729e-02 -4.789867e-02
      vertex   -2.000000e-02 5.843729e-02 -1.052971e-01
    endloop
  endfacet
  facet normal 0.000000e+00 1.000000e+00 0.000000e+00
    outer loop
      vertex   -2.000000e-02 5.843729e-02 -1.052971e-01
      vertex   -4.330127e-03 5.843729e-02 -4.789867e-02
      vertex   -2.500000e-03 5.843729e-02 -4.972879e-02
    endloop
  endfacet
  facet normal 0.000000e+00 1.000000e+00 0.000000e+00
    outer loop
      vertex   -2.000000e-02 5.843729e-02 -1.052971e-01
      vertex   -2.500000e-03 5.843729e-02 -4.972879e-02
      vertex   -7.668695e-17 5.843729e-02 -5.039867e-02
    endloop
  endfacet
  facet normal 0.000000e+00 1.000000e+00 0.000000e+00
    outer loop
      vertex   -4.330127e-03 5.843729e-02 -4.789867e-02
      vertex   -2.000000e-02 5.843729e-02 -4.539867e-02
      vertex   -5.000000e-03 5.843729e-02 -4.539867e-02
    endloop
  endfacet
  facet normal 0.000000e+00 1.000000e+00 0.000000e+00
    outer loop
      vertex   -5.000000e-03 5.843729e-02 -4.539867e-02
      vertex   -2.000000e-02 5.843729e-02 -4.539867e-02
      vertex   -1.847759e-02 5.843729e-02 -3.774500e-02
    endloop
  endfacet
  facet normal 0.000000e+00 1.000000e+00 0.000000e+00
    outer loop
      vertex   -5.000000e-03 5.843729e-02 -4.539867e-02
      vertex   -1.847759e-02 5.843729e-02 -3.774500e-02
      vertex   -1.414214e-02 5.843729e-02 -3.125653e-02
    endloop
  endfacet
  facet normal 0.000000e+00 1.000000e+00 -0.000000e+00
    outer loop
      vertex   -5.000000e-03 5.843729e-02 -4.539867e-02
      vertex   -1.414214e-02 5.843729e-02 -3.125653e-02
      vertex   -4.330127e-03 5.843729e-02 -4.289867e-02
    endloop
  endfacet
  facet normal 0.000000e+00 1.000000e+00 0.000000e+00
    outer loop
      vertex   -4.330127e-03 5.843729e-02 -4.289867e-02
      vertex   -1.414214e-02 5.843729e-02 -3.125653e-02
      vertex   -7.653669e-03 5.843729e-02 -2.692108e-02
    endloop
  endfacet
  facet normal 0.000000e+00 1.000000e+00 -0.000000e+00
    outer loop
      vertex   -4.330127e-03 5.843729e-02 -4.289867e-02
      vertex   -7.653669e-03 5.843729e-02 -2.692108e-02
      vertex   -2.500000e-03 5.843729e-02 -4.106854e-02
    endloop
  endfacet
  facet normal 0.000000e+00 1.000000e+00 -0.000000e+00
    outer loop
      vertex   -2.500000e-03 5.843729e-02 -4.106854e-02
      vertex   -7.653669e-03 5.843729e-02 -2.692108e-02
      vertex   -8.076873e-17 5.843729e-02 -2.539867e-02
    endloop
  endfacet
  facet normal 0.000000e+00 1.000000e+00 0.000000e+00
    outer loop
      vertex   -2.500000e-03 5.843729e-02 -4.106854e-02
      vertex   -8.076873e-17 5.843729e-02 -2.539867e-02
      vertex   -7.868706e-17 5.843729e-02 -4.039867e-02
    endloop
  endfacet
  facet normal -0.000000e+00 1.000000e+00 -0.000000e+00
    outer loop
      vertex   -7.868706e-17 5.843729e-02 -4.039867e-02
      vertex   -8.076873e-17 5.843729e-02 -2.539867e-02
      vertex   2.500000e-03 5.843729e-02 -4.106854e-02
    endloop
  endfacet
  facet normal 0.000000e+00 1.000000e+00 -0.000000e+00
    outer loop
      vertex   2.500000e-03 5.843729e-02 -4.106854e-02
      vertex   -8.076873e-17 5.843729e-02 -2.539867e-02
      vertex   7.653669e-03 5.843729e-02 -2.692108e-02
    endloop
  endfacet
  facet normal -0.000000e+00 1.000000e+00 0.000000e+00
    outer loop
      vertex   2.500000e-03 5.843729e-02 -4.106854e-02
      vertex   7.653669e-03 5.843729e-02 -2.692108e-02
      vertex   4.330127e-03 5.843729e-02 -4.289867e-02
    endloop
  endfacet
  facet normal 0.000000e+00 1.000000e+00 0.000000e+00
    outer loop
      vertex   4.330127e-03 5.843729e-02 -4.289867e-02
      vertex   7.653669e-03 5.843729e-02 -2.692108e-02
      vertex   1.414214e-02 5.843729e-02 -3.125653e-02
    endloop
  endfacet
  facet normal -0.000000e+00 1.000000e+00 0.000000e+00
    outer loop
      vertex   4.330127e-03 5.843729e-02 -4.289867e-02
      vertex   1.414214e-02 5.843729e-02 -3.125653e-02
      vertex   5.000000e-03 5.843729e-02 -4.539867e-02
    endloop
  endfacet
  facet normal 0.000000e+00 1.000000e+00 0.000000e+00
    outer loop
      vertex   5.000000e-03 5.843729e-02 -4.539867e-02
      vertex   1.414214e-02 5.843729e-02 -3.125653e-02
      vertex   1.847759e-02 5.843729e-02 -3.774500e-02
    endloop
  endfacet
  facet normal 0.000000e+00 1.000000e+00 0.000000e+00
    outer loop
      vertex   5.000000e-03 5.843729e-02 -4.539867e-02
      vertex   1.847759e-02 5.843729e-02 -3.774500e-02
      vertex   2.000000e-02 5.843729e-02 -4.539867e-02
    endloop
  endfacet
  facet normal -0.000000e+00 1.000000e+00 0.000000e+00
    outer loop
      vertex   5.000000e-03 5.843729e-02 -4.539867e-02
      vertex   2.000000e-02 5.843729e-02 -4.539867e-02
      vertex   4.330127e-03 5.843729e-02 -4.789867e-02
    endloop
  endfacet
  facet normal -0.000000e+00 1.000000e+00 0.000000e+00
    outer loop
      vertex   4.330127e-03 5.843729e-02 -4.789867e-02
      vertex   2.000000e-02 5.843729e-02 -4.539867e-02
      vertex   2.000000e-02 5.843729e-02 -1.052971e-01
    endloop
  endfacet
  facet normal -2.588190e-01 -8.979589e-17 9.659258e-01
    outer loop
      vertex   2.500000e-03 5.343729e-02 -4.972879e-02
      vertex   2.500000e-03 5.843729e-02 -4.972879e-02
      vertex   -7.729928e-17 5.343729e-02 -5.039867e-02
    endloop
  endfacet
  facet normal -2.588190e-01 3.169619e-17 9.659258e-01
    outer loop
      vertex   -7.729928e-17 5.343729e-02 -5.039867e-02
      vertex   2.500000e-03 5.843729e-02 -4.972879e-02
      vertex   -7.668695e-17 5.843729e-02 -5.039867e-02
    endloop
  endfacet
  facet normal 2.588190e-01 -3.169619e-17 9.659258e-01
    outer loop
      vertex   -7.729928e-17 5.343729e-02 -5.039867e-02
      vertex   -7.668695e-17 5.843729e-02 -5.039867e-02
      vertex   -2.500000e-03 5.343729e-02 -4.972879e-02
    endloop
  endfacet
  facet normal 2.588190e-01 8.979589e-17 9.659258e-01
    outer loop
      vertex   -2.500000e-03 5.343729e-02 -4.972879e-02
      vertex   -7.668695e-17 5.843729e-02 -5.039867e-02
      vertex   -2.500000e-03 5.843729e-02 -4.972879e-02
    endloop
  endfacet
  facet normal 7.071068e-01 2.453269e-16 7.071068e-01
    outer loop
      vertex   -2.500000e-03 5.343729e-02 -4.972879e-02
      vertex   -2.500000e-03 5.843729e-02 -4.972879e-02
      vertex   -4.330127e-03 5.343729e-02 -4.789867e-02
    endloop
  endfacet
  facet normal 7.071068e-01 3.679904e-16 7.071068e-01
    outer loop
      vertex   -4.330127e-03 5.343729e-02 -4.789867e-02
      vertex   -2.500000e-03 5.843729e-02 -4.972879e-02
      vertex   -4.330127e-03 5.843729e-02 -4.789867e-02
    endloop
  endfacet
  facet normal 9.659258e-01 5.026843e-16 2.588190e-01
    outer loop
      vertex   -4.330127e-03 5.343729e-02 -4.789867e-02
      vertex   -4.330127e-03 5.843729e-02 -4.789867e-02
      vertex   -5.000000e-03 5.343729e-02 -4.539867e-02
    endloop
  endfacet
  facet normal 9.659258e-01 -0.000000e+00 2.588190e-01
    outer loop
      vertex   -5.000000e-03 5.343729e-02 -4.539867e-02
      vertex   -4.330127e-03 5.843729e-02 -4.789867e-02
      vertex   -5.000000e-03 5.843729e-02 -4.539867e-02
    endloop
  endfacet
  facet normal 9.659258e-01 0.000000e+00 -2.588190e-01
    outer loop
      vertex   -5.000000e-03 5.343729e-02 -4.539867e-02
      vertex   -5.000000e-03 5.843729e-02 -4.539867e-02
      vertex   -4.330127e-03 5.343729e-02 -4.289867e-02
    endloop
  endfacet
  facet normal 9.659258e-01 -3.351228e-16 -2.588190e-01
    outer loop
      vertex   -4.330127e-03 5.343729e-02 -4.289867e-02
      vertex   -5.000000e-03 5.843729e-02 -4.539867e-02
      vertex   -4.330127e-03 5.843729e-02 -4.289867e-02
    endloop
  endfacet
  facet normal 7.071068e-01 -2.453269e-16 -7.071068e-01
    outer loop
      vertex   -4.330127e-03 5.343729e-02 -4.289867e-02
      vertex   -4.330127e-03 5.843729e-02 -4.289867e-02
      vertex   -2.500000e-03 5.343729e-02 -4.106854e-02
    endloop
  endfacet
  facet normal 7.071068e-01 -3.066587e-16 -7.071068e-01
    outer loop
      vertex   -2.500000e-03 5.343729e-02 -4.106854e-02
      vertex   -4.330127e-03 5.843729e-02 -4.289867e-02
      vertex   -2.500000e-03 5.843729e-02 -4.106854e-02
    endloop
  endfacet
  facet normal 2.588190e-01 -1.122449e-16 -9.659258e-01
    outer loop
      vertex   -2.500000e-03 5.343729e-02 -4.106854e-02
      vertex   -2.500000e-03 5.843729e-02 -4.106854e-02
      vertex   -7.868706e-17 5.343729e-02 -4.039867e-02
    endloop
  endfacet
  facet normal 2.588190e-01 0.000000e+00 -9.659258e-01
    outer loop
      vertex   -7.868706e-17 5.343729e-02 -4.039867e-02
      vertex   -2.500000e-03 5.843729e-02 -4.106854e-02
      vertex   -7.868706e-17 5.843729e-02 -4.039867e-02
    endloop
  endfacet
  facet normal -2.588190e-01 0.000000e+00 -9.659258e-01
    outer loop
      vertex   -7.868706e-17 5.343729e-02 -4.039867e-02
      vertex   -7.868706e-17 5.843729e-02 -4.039867e-02
      vertex   2.500000e-03 5.343729e-02 -4.106854e-02
    endloop
  endfacet
  facet normal -2.588190e-01 8.979589e-17 -9.659258e-01
    outer loop
      vertex   2.500000e-03 5.343729e-02 -4.106854e-02
      vertex   -7.868706e-17 5.843729e-02 -4.039867e-02
      vertex   2.500000e-03 5.843729e-02 -4.106854e-02
    endloop
  endfacet
  facet normal -7.071068e-01 2.453269e-16 -7.071068e-01
    outer loop
      vertex   2.500000e-03 5.343729e-02 -4.106854e-02
      vertex   2.500000e-03 5.843729e-02 -4.106854e-02
      vertex   4.330127e-03 5.343729e-02 -4.289867e-02
    endloop
  endfacet
  facet normal -7.071068e-01 1.226635e-16 -7.071068e-01
    outer loop
      vertex   4.330127e-03 5.343729e-02 -4.289867e-02
      vertex   2.500000e-03 5.843729e-02 -4.106854e-02
      vertex   4.330127e-03 5.843729e-02 -4.289867e-02
    endloop
  endfacet
  facet normal -9.659258e-01 1.675614e-16 -2.588190e-01
    outer loop
      vertex   4.330127e-03 5.343729e-02 -4.289867e-02
      vertex   4.330127e-03 5.843729e-02 -4.289867e-02
      vertex   5.000000e-03 5.343729e-02 -4.539867e-02
    endloop
  endfacet
  facet normal -9.659258e-01 0.000000e+00 -2.588190e-01
    outer loop
      vertex   5.000000e-03 5.343729e-02 -4.539867e-02
      vertex   4.330127e-03 5.843729e-02 -4.289867e-02
      vertex   5.000000e-03 5.843729e-02 -4.539867e-02
    endloop
  endfacet
  facet normal -9.659258e-01 0.000000e+00 2.588190e-01
    outer loop
      vertex   5.000000e-03 5.343729e-02 -4.539867e-02
      vertex   5.000000e-03 5.843729e-02 -4.539867e-02
      vertex   4.330127e-03 5.343729e-02 -4.789867e-02
    endloop
  endfacet
  facet normal -9.659258e-01 -5.026843e-16 2.588190e-01
    outer loop
      vertex   4.330127e-03 5.343729e-02 -4.789867e-02
      vertex   5.000000e-03 5.843729e-02 -4.539867e-02
      vertex   4.330127e-03 5.843729e-02 -4.789867e-02
    endloop
  endfacet
  facet normal -7.071068e-01 -3.679904e-16 7.071068e-01
    outer loop
      vertex   4.330127e-03 5.343729e-02 -4.789867e-02
      vertex   4.330127e-03 5.843729e-02 -4.789867e-02
      vertex   2.500000e-03 5.343729e-02 -4.972879e-02
    endloop
  endfacet
  facet normal -7.071068e-01 -2.453269e-16 7.071068e-01
    outer loop
      vertex   2.500000e-03 5.343729e-02 -4.972879e-02
      vertex   4.330127e-03 5.843729e-02 -4.789867e-02
      vertex   2.500000e-03 5.843729e-02 -4.972879e-02
    endloop
  endfacet
  facet normal 9.807853e-01 -0.000000e+00 1.950903e-01
    outer loop
      vertex   2.000000e-02 5.343729e-02 -4.539867e-02
      vertex   2.000000e-02 5.843729e-02 -4.539867e-02
      vertex   1.847759e-02 5.343729e-02 -3.774500e-02
    endloop
  endfacet
  facet normal 9.807853e-01 -0.000000e+00 1.950903e-01
    outer loop
      vertex   1.847759e-02 5.343729e-02 -3.774500e-02
      vertex   2.000000e-02 5.843729e-02 -4.539867e-02
      vertex   1.847759e-02 5.843729e-02 -3.774500e-02
    endloop
  endfacet
  facet normal 8.314696e-01 -0.000000e+00 5.555702e-01
    outer loop
      vertex   1.847759e-02 5.343729e-02 -3.774500e-02
      vertex   1.847759e-02 5.843729e-02 -3.774500e-02
      vertex   1.414214e-02 5.343729e-02 -3.125653e-02
    endloop
  endfacet
  facet normal 8.314696e-01 -0.000000e+00 5.555702e-01
    outer loop
      vertex   1.414214e-02 5.343729e-02 -3.125653e-02
      vertex   1.847759e-02 5.843729e-02 -3.774500e-02
      vertex   1.414214e-02 5.843729e-02 -3.125653e-02
    endloop
  endfacet
  facet normal 5.555702e-01 -0.000000e+00 8.314696e-01
    outer loop
      vertex   1.414214e-02 5.343729e-02 -3.125653e-02
      vertex   1.414214e-02 5.843729e-02 -3.125653e-02
      vertex   7.653669e-03 5.343729e-02 -2.692108e-02
    endloop
  endfacet
  facet normal 5.555702e-01 -0.000000e+00 8.314696e-01
    outer loop
      vertex   7.653669e-03 5.343729e-02 -2.692108e-02
      vertex   1.414214e-02 5.843729e-02 -3.125653e-02
      vertex   7.653669e-03 5.843729e-02 -2.692108e-02
    endloop
  endfacet
  facet normal 1.950903e-01 -0.000000e+00 9.807853e-01
    outer loop
      vertex   7.653669e-03 5.343729e-02 -2.692108e-02
      vertex   7.653669e-03 5.843729e-02 -2.692108e-02
      vertex   -8.076873e-17 5.343729e-02 -2.539867e-02
    endloop
  endfacet
  facet normal 1.950903e-01 -0.000000e+00 9.807853e-01
    outer loop
      vertex   -8.076873e-17 5.343729e-02 -2.539867e-02
      vertex   7.653669e-03 5.843729e-02 -2.692108e-02
      vertex   -8.076873e-17 5.843729e-02 -2.539867e-02
    endloop
  endfacet
  facet normal -1.950903e-01 0.000000e+00 9.807853e-01
    outer loop
      vertex   -8.076873e-17 5.343729e-02 -2.539867e-02
      vertex   -8.076873e-17 5.843729e-02 -2.539867e-02
      vertex   -7.653669e-03 5.343729e-02 -2.692108e-02
    endloop
  endfacet
  facet normal -1.950903e-01 0.000000e+00 9.807853e-01
    outer loop
      vertex   -7.653669e-03 5.343729e-02 -2.692108e-02
      vertex   -8.076873e-17 5.843729e-02 -2.539867e-02
      vertex   -7.653669e-03 5.843729e-02 -2.692108e-02
    endloop
  endfacet
  facet normal -5.555702e-01 0.000000e+00 8.314696e-01
    outer loop
      vertex   -7.653669e-03 5.343729e-02 -2.692108e-02
      vertex   -7.653669e-03 5.843729e-02 -2.692108e-02
      vertex   -1.414214e-02 5.343729e-02 -3.125653e-02
    endloop
  endfacet
  facet normal -5.555702e-01 0.000000e+00 8.314696e-01
    outer loop
      vertex   -1.414214e-02 5.343729e-02 -3.125653e-02
      vertex   -7.653669e-03 5.843729e-02 -2.692108e-02
      vertex   -1.414214e-02 5.843729e-02 -3.125653e-02
    endloop
  endfacet
  facet normal -8.314696e-01 0.000000e+00 5.555702e-01
    outer loop
      vertex   -1.414214e-02 5.343729e-02 -3.125653e-02
      vertex   -1.414214e-02 5.843729e-02 -3.125653e-02
      vertex   -1.847759e-02 5.343729e-02 -3.774500e-02
    endloop
  endfacet
  facet normal -8.314696e-01 0.000000e+00 5.555702e-01
    outer loop
      vertex   -1.847759e-02 5.343729e-02 -3.774500e-02
      vertex   -1.414214e-02 5.843729e-02 -3.125653e-02
      vertex   -1.847759e-02 5.843729e-02 -3.774500e-02
    endloop
  endfacet
  facet normal -9.807853e-01 0.000000e+00 1.950903e-01
    outer loop
      vertex   -1.847759e-02 5.343729e-02 -3.774500e-02
      vertex   -1.847759e-02 5.843729e-02 -3.774500e-02
      vertex   -2.000000e-02 5.343729e-02 -4.539867e-02
    endloop
  endfacet
  facet normal -9.807853e-01 0.000000e+00 1.950903e-01
    outer loop
      vertex   -2.000000e-02 5.343729e-02 -4.539867e-02
      vertex   -1.847759e-02 5.843729e-02 -3.774500e-02
      vertex   -2.000000e-02 5.843729e-02 -4.539867e-02
    endloop
  endfacet
  facet normal 1.000000e+00 3.469447e-16 1.239088e-16
    outer loop
      vertex   2.000000e-02 5.343729e-02 -1.853987e-01
      vertex   2.000000e-02 5.843729e-02 -1.153987e-01
      vertex   2.000000e-02 5.343729e-02 -4.539867e-02
    endloop
  endfacet
  facet normal 1.000000e+00 -1.387779e-15 0.000000e+00
    outer loop
      vertex   2.000000e-02 5.343729e-02 -4.539867e-02
      vertex   2.000000e-02 5.843729e-02 -1.153987e-01
      vertex   2.000000e-02 5.843729e-02 -1.052971e-01
    endloop
  endfacet
  facet normal 1.000000e+00 -0.000000e+00 1.158444e-16
    outer loop
      vertex   2.000000e-02 5.343729e-02 -4.539867e-02
      vertex   2.000000e-02 5.843729e-02 -1.052971e-01
      vertex   2.000000e-02 5.843729e-02 -4.539867e-02
    endloop
  endfacet
  facet normal 1.000000e+00 -0.000000e+00 1.486906e-16
    outer loop
      vertex   2.000000e-02 5.343729e-02 -1.853987e-01
      vertex   2.000000e-02 5.843729e-02 -1.853987e-01
      vertex   2.000000e-02 5.843729e-02 -1.153987e-01
    endloop
  endfacet
  facet normal 1.000000e+00 -0.000000e+00 0.000000e+00
    outer loop
      vertex   2.000000e-02 5.843729e-02 -1.052971e-01
      vertex   2.000000e-02 5.843729e-02 -1.153987e-01
      vertex   2.000000e-02 8.843729e-02 -1.052971e-01
    endloop
  endfacet
  facet normal 1.000000e+00 0.000000e+00 0.000000e+00
    outer loop
      vertex   2.000000e-02 8.843729e-02 -1.052971e-01
      vertex   2.000000e-02 5.843729e-02 -1.153987e-01
      vertex   2.000000e-02 8.843729e-02 -1.153987e-01
    endloop
  endfacet
  facet normal 1.000000e+00 1.387779e-15 0.000000e+00
    outer loop
      vertex   2.000000e-02 8.843729e-02 -1.052971e-01
      vertex   2.000000e-02 8.843729e-02 -1.153987e-01
      vertex   2.000000e-02 9.343729e-02 -4.539867e-02
    endloop
  endfacet
  facet normal 1.000000e+00 -3.469447e-16 1.239088e-16
    outer loop
      vertex   2.000000e-02 9.343729e-02 -4.539867e-02
      vertex   2.000000e-02 8.843729e-02 -1.153987e-01
      vertex   2.000000e-02 9.343729e-02 -1.853987e-01
    endloop
  endfacet
  facet normal 1.000000e+00 0.000000e+00 1.486906e-16
    outer loop
      vertex   2.000000e-02 9.343729e-02 -1.853987e-01
      vertex   2.000000e-02 8.843729e-02 -1.153987e-01
      vertex   2.000000e-02 8.843729e-02 -1.853987e-01
    endloop
  endfacet
  facet normal 1.000000e+00 0.000000e+00 1.158444e-16
    outer loop
      vertex   2.000000e-02 9.343729e-02 -4.539867e-02
      vertex   2.000000e-02 8.843729e-02 -4.539867e-02
      vertex   2.000000e-02 8.843729e-02 -1.052971e-01
    endloop
  endfacet
  facet normal -9.807853e-01 0.000000e+00 -1.950903e-01
    outer loop
      vertex   -2.000000e-02 5.343729e-02 -1.853987e-01
      vertex   -2.000000e-02 5.843729e-02 -1.853987e-01
      vertex   -1.847759e-02 5.343729e-02 -1.930523e-01
    endloop
  endfacet
  facet normal -9.807853e-01 0.000000e+00 -1.950903e-01
    outer loop
      vertex   -1.847759e-02 5.343729e-02 -1.930523e-01
      vertex   -2.000000e-02 5.843729e-02 -1.853987e-01
      vertex   -1.847759e-02 5.843729e-02 -1.930523e-01
    endloop
  endfacet
  facet normal -8.314696e-01 0.000000e+00 -5.555702e-01
    outer loop
      vertex   -1.847759e-02 5.343729e-02 -1.930523e-01
      vertex   -1.847759e-02 5.843729e-02 -1.930523e-01
      vertex   -1.414214e-02 5.343729e-02 -1.995408e-01
    endloop
  endfacet
  facet normal -8.314696e-01 0.000000e+00 -5.555702e-01
    outer loop
      vertex   -1.414214e-02 5.343729e-02 -1.995408e-01
      vertex   -1.847759e-02 5.843729e-02 -1.930523e-01
      vertex   -1.414214e-02 5.843729e-02 -1.995408e-01
    endloop
  endfacet
  facet normal -5.555702e-01 0.000000e+00 -8.314696e-01
    outer loop
      vertex   -1.414214e-02 5.343729e-02 -1.995408e-01
      vertex   -1.414214e-02 5.843729e-02 -1.995408e-01
      vertex   -7.653669e-03 5.343729e-02 -2.038763e-01
    endloop
  endfacet
  facet normal -5.555702e-01 0.000000e+00 -8.314696e-01
    outer loop
      vertex   -7.653669e-03 5.343729e-02 -2.038763e-01
      vertex   -1.414214e-02 5.843729e-02 -1.995408e-01
      vertex   -7.653669e-03 5.843729e-02 -2.038763e-01
    endloop
  endfacet
  facet normal -1.950903e-01 0.000000e+00 -9.807853e-01
    outer loop
      vertex   -7.653669e-03 5.343729e-02 -2.038763e-01
      vertex   -7.653669e-03 5.843729e-02 -2.038763e-01
      vertex   -5.333941e-17 5.343729e-02 -2.053987e-01
    endloop
  endfacet
  facet normal -1.950903e-01 0.000000e+00 -9.807853e-01
    outer loop
      vertex   -5.333941e-17 5.343729e-02 -2.053987e-01
      vertex   -7.653669e-03 5.843729e-02 -2.038763e-01
      vertex   -5.333941e-17 5.843729e-02 -2.053987e-01
    endloop
  endfacet
  facet normal 1.950903e-01 0.000000e+00 -9.807853e-01
    outer loop
      vertex   -5.333941e-17 5.343729e-02 -2.053987e-01
      vertex   -5.333941e-17 5.843729e-02 -2.053987e-01
      vertex   7.653669e-03 5.343729e-02 -2.038763e-01
    endloop
  endfacet
  facet normal 1.950903e-01 0.000000e+00 -9.807853e-01
    outer loop
      vertex   7.653669e-03 5.343729e-02 -2.038763e-01
      vertex   -5.333941e-17 5.843729e-02 -2.053987e-01
      vertex   7.653669e-03 5.843729e-02 -2.038763e-01
    endloop
  endfacet
  facet normal 5.555702e-01 0.000000e+00 -8.314696e-01
    outer loop
      vertex   7.653669e-03 5.343729e-02 -2.038763e-01
      vertex   7.653669e-03 5.843729e-02 -2.038763e-01
      vertex   1.414214e-02 5.343729e-02 -1.995408e-01
    endloop
  endfacet
  facet normal 5.555702e-01 0.000000e+00 -8.314696e-01
    outer loop
      vertex   1.414214e-02 5.343729e-02 -1.995408e-01
      vertex   7.653669e-03 5.843729e-02 -2.038763e-01
      vertex   1.414214e-02 5.843729e-02 -1.995408e-01
    endloop
  endfacet
  facet normal 8.314696e-01 0.000000e+00 -5.555702e-01
    outer loop
      vertex   1.414214e-02 5.343729e-02 -1.995408e-01
      vertex   1.414214e-02 5.843729e-02 -1.995408e-01
      vertex   1.847759e-02 5.343729e-02 -1.930523e-01
    endloop
  endfacet
  facet normal 8.314696e-01 0.000000e+00 -5.555702e-01
    outer loop
      vertex   1.847759e-02 5.343729e-02 -1.930523e-01
      vertex   1.414214e-02 5.843729e-02 -1.995408e-01
      vertex   1.847759e-02 5.843729e-02 -1.930523e-01
    endloop
  endfacet
  facet normal 9.807853e-01 0.000000e+00 -1.950903e-01
    outer loop
      vertex   1.847759e-02 5.343729e-02 -1.930523e-01
      vertex   1.847759e-02 5.843729e-02 -1.930523e-01
      vertex   2.000000e-02 5.343729e-02 -1.853987e-01
    endloop
  endfacet
  facet normal 9.807853e-01 0.000000e+00 -1.950903e-01
    outer loop
      vertex   2.000000e-02 5.343729e-02 -1.853987e-01
      vertex   1.847759e-02 5.843729e-02 -1.930523e-01
      vertex   2.000000e-02 5.843729e-02 -1.853987e-01
    endloop
  endfacet
  facet normal -1.000000e+00 -0.000000e+00 -9.912706e-17
    outer loop
      vertex   -2.000000e-02 5.843729e-02 -1.853987e-01
      vertex   -2.000000e-02 5.343729e-02 -1.853987e-01
      vertex   -2.000000e-02 5.843729e-02 -1.153987e-01
    endloop
  endfacet
  facet normal -1.000000e+00 6.938894e-16 -1.486906e-16
    outer loop
      vertex   -2.000000e-02 5.843729e-02 -1.153987e-01
      vertex   -2.000000e-02 5.343729e-02 -1.853987e-01
      vertex   -2.000000e-02 5.343729e-02 -4.539867e-02
    endloop
  endfacet
  facet normal -1.000000e+00 -2.032811e-15 -3.434549e-16
    outer loop
      vertex   -2.000000e-02 5.843729e-02 -1.153987e-01
      vertex   -2.000000e-02 5.343729e-02 -4.539867e-02
      vertex   -2.000000e-02 5.843729e-02 -1.052971e-01
    endloop
  endfacet
  facet normal -1.000000e+00 0.000000e+00 -1.737666e-16
    outer loop
      vertex   -2.000000e-02 5.843729e-02 -1.052971e-01
      vertex   -2.000000e-02 5.343729e-02 -4.539867e-02
      vertex   -2.000000e-02 5.843729e-02 -4.539867e-02
    endloop
  endfacet
  facet normal -1.000000e+00 0.000000e+00 -3.434549e-16
    outer loop
      vertex   -2.000000e-02 5.843729e-02 -1.153987e-01
      vertex   -2.000000e-02 5.843729e-02 -1.052971e-01
      vertex   -2.000000e-02 8.843729e-02 -1.153987e-01
    endloop
  endfacet
  facet normal -1.000000e+00 0.000000e+00 -3.434549e-16
    outer loop
      vertex   -2.000000e-02 8.843729e-02 -1.153987e-01
      vertex   -2.000000e-02 5.843729e-02 -1.052971e-01
      vertex   -2.000000e-02 8.843729e-02 -1.052971e-01
    endloop
  endfacet
  facet normal -1.000000e+00 2.032811e-15 -3.434549e-16
    outer loop
      vertex   -2.000000e-02 8.843729e-02 -1.153987e-01
      vertex   -2.000000e-02 8.843729e-02 -1.052971e-01
      vertex   -2.000000e-02 9.343729e-02 -4.539867e-02
    endloop
  endfacet
  facet normal -1.000000e+00 -0.000000e+00 -1.737666e-16
    outer loop
      vertex   -2.000000e-02 9.343729e-02 -4.539867e-02
      vertex   -2.000000e-02 8.843729e-02 -1.052971e-01
      vertex   -2.000000e-02 8.843729e-02 -4.539867e-02
    endloop
  endfacet
  facet normal -1.000000e+00 -6.938894e-16 -1.486906e-16
    outer loop
      vertex   -2.000000e-02 9.343729e-02 -4.539867e-02
      vertex   -2.000000e-02 9.343729e-02 -1.853987e-01
      vertex   -2.000000e-02 8.843729e-02 -1.153987e-01
    endloop
  endfacet
  facet normal -1.000000e+00 0.000000e+00 -9.912706e-17
    outer loop
      vertex   -2.000000e-02 8.843729e-02 -1.153987e-01
      vertex   -2.000000e-02 9.343729e-02 -1.853987e-01
      vertex   -2.000000e-02 8.843729e-02 -1.853987e-01
    endloop
  endfacet
endsolid
